<svg width="227" height="94" viewBox="0 0 227 94" fill="none" xmlns="http://www.w3.org/2000/svg">
<g clip-path="url(#clip0_1344_900)">
<path d="M10.6059 27.4017C10.4604 38.049 14.2212 43.228 20.4878 47.3681C12.8134 52.4025 9.58551 58.5097 9.45729 67.9092C9.38574 73.2794 12.4364 79.8882 17.2278 84.7433C22.4165 90.0009 29.1845 92.8934 36.2843 92.8951C49.209 92.8903 58.3812 84.161 66.3322 74.5817L161.676 74.5677C168.626 83.2321 177.203 92.262 190.651 92.2606C208.266 92.2566 217.944 79.4019 218.105 67.3052C218.247 56.667 214.49 51.4849 208.232 47.3479C214.604 43.2101 218.506 38.0395 218.648 27.3952C218.732 21.0206 216.152 14.7006 211.57 10.0574C209.846 8.31095 207.432 6.40353 204.185 4.92363C200.941 3.44676 196.864 2.40943 191.821 2.40921C178.376 2.41365 169.56 11.455 162.379 20.1253L67.0375 20.1422C60.0851 11.4749 51.5083 2.44496 38.0604 2.44637C20.4446 2.45034 10.7669 15.3051 10.6059 27.4017ZM38.0587 5.42341C50.4752 5.42421 58.2529 13.8865 65.1571 22.5596C65.4404 22.9193 65.8661 23.1206 66.3202 23.1206L163.078 23.1039C163.102 23.1041 163.126 23.0982 163.147 23.0954C163.198 23.0927 163.252 23.087 163.303 23.0784C163.352 23.0727 163.397 23.0639 163.442 23.0552L163.578 23.011C163.668 22.9775 163.756 22.9368 163.84 22.8894C163.879 22.8626 163.921 22.8389 163.961 22.806C164 22.7792 164.033 22.7524 164.07 22.7166C164.109 22.6837 164.145 22.6479 164.179 22.609C164.197 22.5911 164.215 22.5792 164.227 22.5612C171.375 13.8697 179.391 5.3914 191.823 5.38929C198.989 5.38549 205.084 7.72319 209.451 12.1484C213.418 16.1681 215.744 21.8549 215.671 27.3575C215.531 37.7552 211.524 42.0861 204.647 46.0462C204.188 46.3138 203.905 46.8021 203.902 47.3313C203.901 47.5923 203.969 47.8488 204.099 48.0754C204.228 48.3021 204.414 48.4909 204.639 48.6232C211.55 52.6653 215.269 56.8337 215.128 67.2676C214.986 77.9359 206.358 89.282 190.652 89.2835C178.236 89.2827 170.458 80.8204 163.554 72.1474C163.536 72.1232 163.512 72.105 163.488 72.0808C163.461 72.0475 163.431 72.0172 163.398 71.99C163.357 71.9476 163.312 71.9142 163.267 71.8808C163.237 71.8566 163.207 71.8383 163.174 71.8171C163.126 71.7867 163.072 71.7563 163.018 71.7318C162.985 71.7166 162.952 71.7013 162.916 71.6891C162.862 71.6707 162.805 71.6493 162.745 71.6368C162.712 71.6276 162.676 71.6213 162.64 71.6151C162.577 71.6056 162.514 71.5962 162.451 71.5928C162.433 71.5927 162.412 71.5895 162.391 71.5864L65.6301 71.606C65.4106 71.6072 65.1939 71.6564 64.9954 71.7501C64.7969 71.8439 64.6212 71.9799 64.4808 72.1487C57.4114 80.7445 48.8136 89.9166 36.2829 89.9151C28.2148 89.9189 22.6175 85.9667 19.3466 82.6523C15.084 78.3329 12.3705 72.5624 12.4311 67.9499C12.5758 57.4228 17.1843 52.6238 24.0637 48.6607C24.5256 48.3962 24.8085 47.9079 24.809 47.3756C24.8125 46.8464 24.53 46.3544 24.0747 46.0867C17.161 42.0416 13.4416 37.8732 13.5827 27.4394C13.7253 16.771 22.3525 5.42495 38.0587 5.42341Z" fill="#FFD86A"/>
<path d="M38.0617 5.42393C50.4781 5.42473 58.2558 13.887 65.1601 22.5601C65.4434 22.9198 65.869 23.1211 66.3231 23.1211L163.081 23.1044C163.105 23.1046 163.129 23.0987 163.15 23.0959C163.201 23.0932 163.255 23.0876 163.306 23.0789C163.355 23.0732 163.4 23.0645 163.445 23.0557L163.58 23.0115C163.671 22.978 163.759 22.9373 163.843 22.89C163.882 22.8631 163.924 22.8394 163.964 22.8066C164.003 22.7798 164.036 22.7529 164.073 22.7171C164.112 22.6842 164.148 22.6484 164.182 22.6095C164.2 22.5916 164.218 22.5797 164.23 22.5617C171.378 13.8702 179.394 5.39191 191.826 5.38981C198.992 5.386 205.087 7.7237 209.454 12.149C213.421 16.1686 215.747 21.8554 215.674 27.358C215.534 37.7557 211.526 42.0866 204.65 46.0467C204.191 46.3143 203.908 46.8026 203.905 47.3318C203.904 47.5928 203.972 47.8493 204.101 48.0759C204.231 48.3026 204.417 48.4914 204.642 48.6238C211.553 52.6659 215.272 56.8343 215.131 67.2681C214.989 77.9364 206.361 89.2825 190.655 89.284C178.239 89.2832 170.461 80.8209 163.557 72.1479C163.539 72.1237 163.515 72.1055 163.491 72.0813C163.464 72.048 163.434 72.0178 163.401 71.9905C163.36 71.9481 163.315 71.9147 163.27 71.8814C163.24 71.8571 163.21 71.8389 163.177 71.8176C163.129 71.7872 163.075 71.7568 163.021 71.7324C162.988 71.7171 162.955 71.7019 162.919 71.6896C162.865 71.6712 162.808 71.6498 162.748 71.6373C162.715 71.6281 162.679 71.6219 162.643 71.6156C162.58 71.6062 162.517 71.5967 162.454 71.5933C162.436 71.5932 162.415 71.59 162.394 71.5869L65.6331 71.6065C65.4135 71.6077 65.1969 71.6569 64.9983 71.7506C64.7998 71.8444 64.6242 71.9804 64.4838 72.1492C57.4144 80.745 48.8166 89.9171 36.2859 89.9156C28.2177 89.9194 22.6205 85.9672 19.3496 82.6528C15.0869 78.3335 12.3735 72.5629 12.434 67.9504C12.5787 57.4234 17.1872 52.6243 24.0667 48.6613C24.5285 48.3967 24.8114 47.9084 24.8119 47.3761C24.8154 46.8469 24.533 46.3549 24.0777 46.0872C17.1639 42.0421 13.4446 37.8737 13.5856 27.4399C13.7282 16.7715 22.3554 5.42547 38.0617 5.42393Z" fill="#FFD86A"/>
<path opacity="0.1" d="M19.3496 82.6528C15.9771 79.2355 13.5759 74.9134 12.7509 70.9716C13.7095 72.4334 14.8339 73.8391 16.0915 75.1134C19.3624 78.4278 24.9597 82.3801 33.0278 82.3762C45.5585 82.3778 54.1563 73.2057 61.2257 64.6099C61.3661 64.4411 61.5417 64.305 61.7403 64.2113C61.9388 64.1175 62.1555 64.0683 62.375 64.0671L159.136 64.0475C159.157 64.0507 159.178 64.0538 159.196 64.054C159.259 64.0574 159.322 64.0668 159.385 64.0763C159.421 64.0825 159.457 64.0888 159.49 64.098C159.55 64.1104 159.607 64.1319 159.661 64.1503C159.697 64.1625 159.73 64.1778 159.763 64.193C159.817 64.2174 159.871 64.2479 159.919 64.2783C159.952 64.2995 159.982 64.3178 160.012 64.342C160.057 64.3754 160.102 64.4088 160.143 64.4511C160.176 64.4784 160.206 64.5087 160.233 64.5419C160.257 64.5662 160.281 64.5844 160.299 64.6085C167.203 73.2816 174.981 81.7439 187.397 81.7447C203.103 81.7431 211.73 70.3971 211.873 59.7287C211.902 57.6029 211.77 55.7376 211.483 54.0788C213.95 57.1353 215.214 61.11 215.131 67.2681C214.989 77.9364 206.361 89.2825 190.655 89.284C178.239 89.2832 170.461 80.8209 163.557 72.1479C163.539 72.1237 163.515 72.1055 163.491 72.0813C163.464 72.048 163.434 72.0178 163.401 71.9905C163.36 71.9481 163.315 71.9147 163.27 71.8813C163.24 71.8571 163.21 71.8389 163.177 71.8176C163.129 71.7872 163.075 71.7568 163.021 71.7324C162.988 71.7171 162.955 71.7019 162.919 71.6896C162.865 71.6712 162.808 71.6498 162.748 71.6373C162.715 71.6281 162.679 71.6218 162.643 71.6156C162.58 71.6062 162.517 71.5967 162.454 71.5933C162.436 71.5932 162.415 71.59 162.394 71.5869L65.6331 71.6065C65.4135 71.6077 65.1969 71.6569 64.9983 71.7506C64.7998 71.8444 64.6242 71.9804 64.4838 72.1492C57.4144 80.745 48.8166 89.9171 36.2859 89.9156C28.2177 89.9194 22.6205 85.9672 19.3496 82.6528Z" fill="#1F2123"/>
<path d="M83.0043 48L83.0043 37.8182L86.902 37.8182C87.6378 37.8182 88.2493 37.9342 88.7365 38.1662C89.227 38.3949 89.5933 38.7081 89.8352 39.1058C90.0805 39.5036 90.2031 39.9543 90.2031 40.4581C90.2031 40.8724 90.1236 41.227 89.9645 41.522C89.8054 41.8137 89.5916 42.0507 89.3232 42.233C89.0547 42.4152 88.7547 42.5462 88.4233 42.6257L88.4233 42.7251C88.7846 42.745 89.1309 42.8561 89.4624 43.0582C89.7971 43.2571 90.0705 43.5388 90.2827 43.9034C90.4948 44.268 90.6009 44.7088 90.6009 45.2259C90.6009 45.7528 90.4732 46.2268 90.218 46.6477C89.9628 47.0653 89.5784 47.3951 89.0646 47.6371C88.5509 47.879 87.9046 48 87.1257 48L83.0043 48ZM84.8487 46.4588L86.8324 46.4588C87.5019 46.4588 87.9841 46.3312 88.2791 46.076C88.5774 45.8175 88.7266 45.486 88.7266 45.0817C88.7266 44.7801 88.652 44.5083 88.5028 44.2663C88.3537 44.0211 88.1416 43.8288 87.8665 43.6896C87.5914 43.5471 87.2633 43.4759 86.8821 43.4759L84.8487 43.4759L84.8487 46.4588ZM84.8487 42.1484L86.6733 42.1484C86.9915 42.1484 87.2782 42.0904 87.5334 41.9744C87.7886 41.8551 87.9891 41.6877 88.1349 41.4723C88.2841 41.2536 88.3587 40.995 88.3587 40.6967C88.3587 40.3023 88.2195 39.9775 87.9411 39.7223C87.666 39.4671 87.2566 39.3395 86.7131 39.3395L84.8487 39.3395L84.8487 42.1484ZM98.6238 37.8182L100.468 37.8182L100.468 44.4702C100.468 45.1993 100.296 45.8407 99.9512 46.3942C99.6098 46.9477 99.1292 47.3802 98.5094 47.6918C97.8896 48 97.1654 48.1541 96.3368 48.1541C95.5049 48.1541 94.7791 48 94.1593 47.6918C93.5395 47.3802 93.0589 46.9477 92.7175 46.3942C92.3761 45.8407 92.2054 45.1993 92.2054 44.4702L92.2054 37.8182L94.0499 37.8182L94.0499 44.3161C94.0499 44.7403 94.1427 45.1181 94.3283 45.4496C94.5172 45.781 94.7824 46.0412 95.1238 46.2301C95.4651 46.4157 95.8695 46.5085 96.3368 46.5085C96.8042 46.5085 97.2085 46.4157 97.5499 46.2301C97.8946 46.0412 98.1597 45.781 98.3453 45.4496C98.531 45.1181 98.6238 44.7403 98.6238 44.3161L98.6238 37.8182ZM101.777 37.8182L103.86 37.8182L106.351 42.3224L106.45 42.3224L108.941 37.8182L111.024 37.8182L107.32 44.2017L107.32 48L105.481 48L105.481 44.2017L101.777 37.8182ZM118.985 49.2727L118.985 36.5455L119.8 36.5455L119.8 49.2727L118.985 49.2727ZM121.336 40.6172C121.29 40.183 121.095 39.8449 120.75 39.603C120.408 39.361 119.964 39.2401 119.417 39.2401C119.033 39.2401 118.703 39.2981 118.428 39.4141C118.153 39.5301 117.943 39.6875 117.797 39.8864C117.651 40.0852 117.576 40.3123 117.573 40.5675C117.573 40.7796 117.621 40.9635 117.717 41.1193C117.817 41.2751 117.951 41.4077 118.12 41.517C118.289 41.6231 118.476 41.7126 118.682 41.7855C118.887 41.8584 119.094 41.9197 119.303 41.9695L120.258 42.2081C120.642 42.2976 121.012 42.4186 121.366 42.571C121.724 42.7235 122.044 42.9157 122.326 43.1477C122.611 43.3797 122.836 43.6598 123.002 43.9879C123.168 44.3161 123.251 44.7005 123.251 45.1413C123.251 45.7379 123.098 46.2633 122.793 46.7173C122.488 47.1681 122.047 47.5211 121.471 47.7763C120.897 48.0282 120.203 48.1541 119.388 48.1541C118.595 48.1541 117.908 48.0315 117.324 47.7862C116.744 47.541 116.29 47.183 115.962 46.7124C115.637 46.2417 115.462 45.6683 115.435 44.9922L117.25 44.9922C117.276 45.3468 117.386 45.6418 117.578 45.8771C117.77 46.1125 118.02 46.2881 118.329 46.4041C118.64 46.5201 118.988 46.5781 119.373 46.5781C119.774 46.5781 120.125 46.5185 120.427 46.3991C120.732 46.2765 120.97 46.1075 121.143 45.892C121.315 45.6733 121.403 45.4181 121.406 45.1264C121.403 44.8613 121.325 44.6425 121.172 44.4702C121.02 44.2945 120.806 44.1487 120.531 44.0327C120.259 43.9134 119.941 43.8073 119.577 43.7145L118.418 43.4162C117.58 43.2008 116.917 42.8743 116.43 42.4368C115.946 41.996 115.704 41.411 115.704 40.6818C115.704 40.0819 115.866 39.5566 116.191 39.1058C116.519 38.6551 116.965 38.3054 117.528 38.0568C118.092 37.8049 118.73 37.679 119.442 37.679C120.165 37.679 120.798 37.8049 121.341 38.0568C121.888 38.3054 122.318 38.6518 122.629 39.0959C122.941 39.5367 123.101 40.0438 123.111 40.6172L121.336 40.6172ZM128.345 48L124.895 48L124.895 37.8182L128.415 37.8182C129.426 37.8182 130.294 38.022 131.02 38.4297C131.749 38.834 132.309 39.4157 132.7 40.1747C133.091 40.9337 133.287 41.8419 133.287 42.8991C133.287 43.9598 133.09 44.8712 132.695 45.6335C132.304 46.3958 131.739 46.9808 131 47.3885C130.264 47.7962 129.379 48 128.345 48ZM126.739 46.4041L128.256 46.4041C128.965 46.4041 129.557 46.2749 130.031 46.0163C130.504 45.7545 130.861 45.3651 131.099 44.848C131.338 44.3277 131.457 43.678 131.457 42.8991C131.457 42.1203 131.338 41.474 131.099 40.9602C130.861 40.4432 130.508 40.0571 130.04 39.8018C129.576 39.5433 129 39.4141 128.31 39.4141L126.739 39.4141L126.739 46.4041ZM144.137 42.9091C144.137 44.0062 143.932 44.9458 143.521 45.728C143.113 46.5069 142.556 47.1035 141.85 47.5178C141.148 47.9321 140.351 48.1392 139.459 48.1392C138.568 48.1392 137.769 47.9321 137.063 47.5178C136.36 47.1001 135.803 46.5019 135.392 45.723C134.985 44.9408 134.781 44.0028 134.781 42.9091C134.781 41.812 134.985 40.8741 135.392 40.0952C135.803 39.313 136.36 38.7147 137.063 38.3004C137.769 37.8861 138.568 37.679 139.459 37.679C140.351 37.679 141.148 37.8861 141.85 38.3004C142.556 38.7147 143.113 39.313 143.521 40.0952C143.932 40.8741 144.137 41.812 144.137 42.9091ZM142.283 42.9091C142.283 42.1368 142.162 41.4856 141.92 40.9553C141.681 40.4216 141.35 40.0189 140.926 39.7472C140.502 39.4721 140.013 39.3345 139.459 39.3345C138.906 39.3345 138.417 39.4721 137.993 39.7472C137.568 40.0189 137.235 40.4216 136.993 40.9553C136.755 41.4856 136.635 42.1368 136.635 42.9091C136.635 43.6813 136.755 44.3343 136.993 44.8679C137.235 45.3982 137.568 45.8009 137.993 46.076C138.417 46.3478 138.906 46.4837 139.459 46.4837C140.013 46.4837 140.502 46.3478 140.926 46.076C141.35 45.8009 141.681 45.3982 141.92 44.8679C142.162 44.3343 142.283 43.6813 142.283 42.9091ZM152.702 41.0696C152.619 40.8011 152.505 40.5608 152.359 40.3487C152.217 40.1333 152.044 39.9493 151.842 39.7969C151.643 39.6444 151.415 39.5301 151.156 39.4538C150.898 39.3743 150.616 39.3345 150.311 39.3345C149.764 39.3345 149.277 39.4721 148.849 39.7472C148.422 40.0223 148.085 40.4266 147.84 40.9602C147.598 41.4905 147.477 42.1368 147.477 42.8991C147.477 43.6681 147.598 44.3194 147.84 44.853C148.082 45.3866 148.418 45.7926 148.849 46.071C149.28 46.3461 149.781 46.4837 150.351 46.4837C150.868 46.4837 151.315 46.3842 151.693 46.1854C152.074 45.9865 152.367 45.7048 152.573 45.3402C152.778 44.9723 152.881 44.5414 152.881 44.0476L153.299 44.1122L150.535 44.1122L150.535 42.6705L154.666 42.6705L154.666 43.8935C154.666 44.7652 154.48 45.5192 154.109 46.1555C153.738 46.7919 153.228 47.2824 152.578 47.6271C151.928 47.9685 151.183 48.1392 150.341 48.1392C149.403 48.1392 148.579 47.9287 147.87 47.5078C147.164 47.0836 146.612 46.482 146.214 45.7031C145.82 44.9209 145.623 43.9929 145.623 42.919C145.623 42.0971 145.739 41.3629 145.971 40.7166C146.206 40.0703 146.534 39.5218 146.955 39.071C147.376 38.617 147.87 38.2723 148.437 38.0369C149.003 37.7983 149.62 37.679 150.286 37.679C150.849 37.679 151.375 37.7618 151.862 37.9276C152.349 38.09 152.782 38.322 153.16 38.6236C153.541 38.9252 153.854 39.2831 154.099 39.6974C154.345 40.1117 154.505 40.5691 154.581 41.0696L152.702 41.0696ZM157.443 48L155.474 48L159.058 37.8182L161.335 37.8182L164.925 48L162.956 48L160.237 39.9062L160.157 39.9062L157.443 48ZM157.507 44.0078L162.877 44.0078L162.877 45.4893L157.507 45.4893L157.507 44.0078Z" fill="#1F2123"/>
<g clip-path="url(#clip1_1344_900)">
<path d="M65.6071 44.4397C65.9214 43.7632 65.8773 42.9648 65.6043 42.2827C65.0763 40.9643 63.3223 39.8352 62.1758 41.1993C61.9214 41.5015 61.7703 41.8765 61.7134 42.2685C61.6736 42.5475 61.6797 42.8311 61.7317 43.1081C61.8002 43.4745 61.9417 43.824 62.1285 44.1453C62.5262 44.8297 63.1625 45.4073 63.9909 45.4523C64.6978 45.4905 65.3131 45.0724 65.6071 44.4397ZM75.5536 40.9005C75.0599 40.5248 74.4087 40.4823 73.8448 40.7186C72.5307 41.2695 71.7989 43.0717 72.357 44.3826C72.7531 45.3122 73.7243 45.7243 74.6341 45.2834C75.1955 45.012 75.6558 44.5689 75.9483 44.0183C76.1198 43.6925 76.2341 43.3397 76.2862 42.9753C76.3952 42.2027 76.2073 41.3986 75.5536 40.9005Z" fill="#1F2123"/>
<path d="M71.4956 43.7839C71.1939 42.4806 70.664 41.4356 69.1806 41.3433C68.1075 41.2765 67.3139 41.7273 66.8412 42.6964C66.4083 43.5849 66.5831 44.6562 65.2837 45.8374C62.6707 48.213 64.2362 50.0717 66.3244 49.6781C69.758 49.0313 70.921 49.7673 72.2231 49.7193C74.3594 49.6406 74.5232 47.7158 73.3829 46.5101C72.5454 45.6249 71.819 45.181 71.4956 43.7839ZM65.6455 40.8582C65.8682 41.0157 66.1205 41.1334 66.3879 41.1887C67.0469 41.3252 67.6965 41.0237 68.0766 40.4795C68.3349 40.1099 68.4695 39.6783 68.4983 39.2345C68.5591 38.3028 68.1534 37.3167 67.4455 36.7364C66.4236 35.8987 65.126 36.2386 64.6387 37.4639C64.1788 38.6205 64.6295 40.1398 65.6455 40.8582ZM72.4263 40.7915C72.7932 40.4989 73.0869 40.1241 73.2698 39.6909C73.4307 39.3027 73.5158 38.8873 73.5205 38.4671C73.5296 37.6409 73.2174 36.8198 72.4384 36.4379C71.8149 36.1323 71.2138 36.2607 70.6615 36.642C69.6229 37.3593 69.1754 38.9316 69.6695 40.0953C70.1644 41.2607 71.4304 41.5855 72.4263 40.7915Z" fill="#1F2123"/>
</g>
</g>
<defs>
<clipPath id="clip0_1344_900">
<rect width="227" height="94" fill="white"/>
</clipPath>
<clipPath id="clip1_1344_900">
<rect width="16" height="16" fill="white" transform="translate(61 35)"/>
</clipPath>
</defs>
</svg>
