<svg width="809" height="351" viewBox="0 0 809 351" fill="none" xmlns="http://www.w3.org/2000/svg">
<g clip-path="url(#clip0_2001_51)">
<mask id="path-1-inside-1_2001_51" fill="white">
<path fill-rule="evenodd" clip-rule="evenodd" d="M219.416 85C207.611 36.2254 163.669 0 111.267 0C49.8159 0 0 49.8159 0 111.267C0 135.193 7.55177 157.355 20.4018 175.5C7.55177 193.645 0 215.807 0 239.733C0 301.184 49.8159 351 111.267 351C162.589 351 205.796 316.253 218.645 269H582.337C595.186 316.253 638.393 351 689.715 351C751.166 351 800.982 301.184 800.982 239.733C800.982 215.807 793.43 193.645 780.58 175.5C793.43 157.355 800.982 135.193 800.982 111.267C800.982 49.8159 751.166 0 689.715 0C637.312 0 593.371 36.2254 581.566 85H219.416Z"/>
</mask>
<path fill-rule="evenodd" clip-rule="evenodd" d="M219.416 85C207.611 36.2254 163.669 0 111.267 0C49.8159 0 0 49.8159 0 111.267C0 135.193 7.55177 157.355 20.4018 175.5C7.55177 193.645 0 215.807 0 239.733C0 301.184 49.8159 351 111.267 351C162.589 351 205.796 316.253 218.645 269H582.337C595.186 316.253 638.393 351 689.715 351C751.166 351 800.982 301.184 800.982 239.733C800.982 215.807 793.43 193.645 780.58 175.5C793.43 157.355 800.982 135.193 800.982 111.267C800.982 49.8159 751.166 0 689.715 0C637.312 0 593.371 36.2254 581.566 85H219.416Z" fill="#25272D"/>
<path d="M219.416 85L214.556 86.1761L215.481 90H219.416V85ZM20.4018 175.5L24.4822 178.39L26.5286 175.5L24.4822 172.61L20.4018 175.5ZM218.645 269V264H214.823L213.82 267.688L218.645 269ZM582.337 269L587.162 267.688L586.159 264H582.337V269ZM780.58 175.5L776.5 172.61L774.453 175.5L776.5 178.39L780.58 175.5ZM581.566 85V90H585.501L586.426 86.1761L581.566 85ZM224.275 83.8239C211.94 32.8576 166.031 -5 111.267 -5V5C161.308 5 203.282 39.5932 214.556 86.1761L224.275 83.8239ZM111.267 -5C47.0545 -5 -5 47.0545 -5 111.267H5C5 52.5774 52.5774 5 111.267 5V-5ZM-5 111.267C-5 136.262 2.89274 159.428 16.3214 178.39L24.4822 172.61C12.2108 155.283 5 134.124 5 111.267H-5ZM16.3214 172.61C2.89274 191.572 -5 214.738 -5 239.733H5C5 216.876 12.2108 195.717 24.4822 178.39L16.3214 172.61ZM-5 239.733C-5 303.945 47.0545 356 111.267 356V346C52.5774 346 5 298.423 5 239.733H-5ZM111.267 356C164.903 356 210.044 319.686 223.47 270.312L213.82 267.688C201.548 312.819 160.276 346 111.267 346V356ZM582.337 264H218.645V274H582.337V264ZM577.512 270.312C590.938 319.686 636.079 356 689.715 356V346C640.706 346 599.434 312.819 587.162 267.688L577.512 270.312ZM689.715 356C753.927 356 805.982 303.945 805.982 239.733H795.982C795.982 298.423 748.405 346 689.715 346V356ZM805.982 239.733C805.982 214.738 798.089 191.572 784.661 172.61L776.5 178.39C788.771 195.717 795.982 216.876 795.982 239.733H805.982ZM784.661 178.39C798.089 159.428 805.982 136.262 805.982 111.267H795.982C795.982 134.124 788.771 155.283 776.5 172.61L784.661 178.39ZM805.982 111.267C805.982 47.0545 753.927 -5 689.715 -5V5C748.405 5 795.982 52.5774 795.982 111.267H805.982ZM689.715 -5C634.951 -5 589.042 32.8576 576.707 83.8239L586.426 86.1761C597.7 39.5932 639.674 5 689.715 5V-5ZM219.416 90H581.566V80H219.416V90Z" fill="#F0BD2F" mask="url(#path-1-inside-1_2001_51)"/>
<path d="M313 88V266.5" stroke="#F0BD2F" stroke-width="5"/>
<path d="M795 88L5 88" stroke="#F0BD2F" stroke-width="5"/>
<path d="M795 266L5 266" stroke="#F0BD2F" stroke-width="5"/>
<path d="M550 88V266.5" stroke="#F0BD2F" stroke-width="5"/>
<path d="M61.622 157.456C61.622 157.622 61.1538 157.758 60.2175 157.864C59.2963 157.955 58.3675 158 57.4311 158C56.5099 158 55.9209 157.962 55.6642 157.887C55.4225 157.796 55.3017 157.653 55.3017 157.456V147.715H52.1529C51.9868 147.715 51.8433 147.504 51.7225 147.081C51.6016 146.658 51.5412 146.031 51.5412 145.201C51.5412 144.355 51.6319 143.6 51.8131 142.935C51.9943 142.256 52.2359 141.916 52.538 141.916H64.7935C65.02 141.916 65.171 142.128 65.2465 142.55C65.3372 142.973 65.3825 143.585 65.3825 144.385C65.3825 145.186 65.2994 145.941 65.1333 146.651C64.9672 147.36 64.7406 147.715 64.4537 147.715H61.622V157.456ZM74.4068 158.204C73.1534 158.204 72.0735 158.091 71.1674 157.864C70.2764 157.622 69.4533 157.2 68.6982 156.595C67.1729 155.402 66.4102 153.114 66.4102 149.732C66.4102 148.312 66.6141 147.074 67.0218 146.016C67.4447 144.959 68.0261 144.121 68.7661 143.502C70.216 142.294 72.0962 141.69 74.4068 141.69C75.5999 141.69 76.6344 141.795 77.5104 142.007C78.4014 142.218 79.2396 142.603 80.0249 143.162C81.6106 144.31 82.4035 146.5 82.4035 149.732C82.4035 152.631 81.6861 154.768 80.2514 156.142C78.8167 157.517 76.8685 158.204 74.4068 158.204ZM73.6593 154.33C73.8405 154.542 74.0897 154.647 74.4068 154.647C74.724 154.647 74.9732 154.542 75.1544 154.33C75.3356 154.104 75.4867 153.635 75.6075 152.926C75.7283 152.201 75.7887 151.196 75.7887 149.913C75.7887 148.629 75.7283 147.64 75.6075 146.945C75.4867 146.25 75.3356 145.797 75.1544 145.586C74.9732 145.374 74.724 145.269 74.4068 145.269C74.0897 145.269 73.8405 145.374 73.6593 145.586C73.4781 145.797 73.327 146.25 73.2062 146.945C73.0854 147.64 73.025 148.629 73.025 149.913C73.025 151.196 73.0854 152.201 73.2062 152.926C73.327 153.635 73.4781 154.104 73.6593 154.33ZM90.1931 157.298C90.1931 157.494 89.7249 157.653 88.7886 157.773C87.8673 157.894 86.9461 157.955 86.0249 157.955C85.1036 157.955 84.5146 157.902 84.2579 157.796C84.0012 157.69 83.8728 157.524 83.8728 157.298V143.411C83.8728 143.019 84.2956 142.671 85.1414 142.369C86.0022 142.067 86.9914 141.916 88.109 141.916C89.0302 141.916 89.6268 142.097 89.8986 142.46C90.0949 142.716 90.1931 142.951 90.1931 143.162V146.9H90.3743C90.3743 146.824 90.6008 146.198 91.0539 145.02C91.9147 142.8 92.5415 141.69 92.9341 141.69C93.6742 141.69 94.7162 141.909 96.0603 142.346C96.7097 142.558 97.2685 142.868 97.7367 143.275C98.2048 143.668 98.4389 144.106 98.4389 144.589C98.4389 144.891 98.1293 145.48 97.5101 146.356C96.906 147.217 95.9848 148.372 94.7464 149.822C95.0334 150.124 95.3958 150.509 95.8338 150.977C96.2718 151.446 96.8532 152.148 97.5781 153.084C98.3181 154.005 98.6881 154.662 98.6881 155.055C98.6881 155.448 98.3332 155.908 97.6234 156.437C96.9136 156.95 96.1585 157.373 95.3581 157.706C94.5576 158.023 93.9611 158.181 93.5684 158.181C93.3117 158.181 92.9568 157.796 92.5037 157.026C92.0658 156.241 91.5296 155.07 90.8953 153.515L90.1931 154.353V157.298ZM111.419 158H101.814C101.074 158 100.576 157.947 100.319 157.841C100.062 157.736 99.9337 157.57 99.9337 157.343V143.003C99.9337 142.611 100.107 142.331 100.455 142.165C100.817 141.999 101.459 141.916 102.38 141.916H111.487C111.804 141.916 111.963 142.445 111.963 143.502C111.963 144.544 111.895 145.344 111.759 145.903C111.623 146.447 111.442 146.719 111.215 146.719C110.233 146.719 108.58 146.62 106.254 146.424V147.942C108.489 147.851 109.947 147.806 110.626 147.806C111.034 147.806 111.238 148.282 111.238 149.233C111.238 150.185 111.155 150.909 110.989 151.408C110.838 151.891 110.626 152.133 110.354 152.133L106.254 152.042V153.492C108.882 153.296 110.694 153.197 111.691 153.197C112.008 153.197 112.167 153.726 112.167 154.783C112.167 155.84 112.099 156.641 111.963 157.184C111.827 157.728 111.646 158 111.419 158ZM120.081 157.343C120.081 157.539 119.612 157.698 118.676 157.819C117.755 157.94 116.834 158 115.912 158C114.991 158 114.402 157.947 114.145 157.841C113.889 157.736 113.76 157.57 113.76 157.343V143.434C113.76 143.056 114.191 142.709 115.051 142.392C115.927 142.075 116.917 141.916 118.019 141.916C118.412 141.916 118.706 141.931 118.903 141.961C119.416 142.037 119.778 142.362 119.99 142.935L122.165 148.78H122.255V143.434C122.255 143.056 122.686 142.709 123.547 142.392C124.407 142.075 125.389 141.916 126.491 141.916C127.443 141.916 128.047 142.097 128.304 142.46C128.485 142.716 128.576 142.951 128.576 143.162V157.343C128.576 157.539 128.107 157.698 127.171 157.819C126.25 157.94 125.23 158 124.113 158C123.01 158 122.406 157.857 122.301 157.57L120.194 151.997H120.081V157.343ZM141.737 156.845C141.707 157.283 141.473 157.585 141.035 157.751C140.612 157.917 139.842 158 138.724 158C137.606 158 136.67 157.902 135.915 157.706C135.175 157.494 134.805 157.23 134.805 156.913C134.805 156.55 135.477 154.24 136.821 149.981C138.165 145.707 138.935 143.245 139.132 142.596C139.207 142.399 139.811 142.241 140.944 142.12C142.092 141.984 143.315 141.916 144.614 141.916C145.928 141.916 146.653 142.143 146.789 142.596C149.643 152.08 151.07 156.898 151.07 157.049C151.07 157.2 150.979 157.351 150.798 157.502C150.375 157.834 149.537 158 148.284 158C145.611 158 144.244 157.683 144.183 157.049L144.025 155.576H141.85L141.737 156.845ZM143.549 151.272L143.209 147.194H142.711L142.326 151.272H143.549ZM154.112 158C153.357 158 152.851 157.962 152.594 157.887C152.337 157.796 152.209 157.653 152.209 157.456V143.366C152.209 143.034 152.647 142.709 153.523 142.392C154.399 142.06 155.381 141.893 156.468 141.893C157.434 141.893 158.069 142.097 158.371 142.505C158.477 142.656 158.529 142.807 158.529 142.958V152.994C160.372 152.873 161.761 152.812 162.698 152.812C163.015 152.812 163.173 153.318 163.173 154.33C163.173 155.327 163.105 156.188 162.969 156.913C162.834 157.638 162.652 158 162.426 158H154.112ZM166.434 158C165.679 158 165.173 157.962 164.916 157.887C164.66 157.796 164.531 157.653 164.531 157.456V143.366C164.531 143.034 164.969 142.709 165.845 142.392C166.721 142.06 167.703 141.893 168.79 141.893C169.757 141.893 170.391 142.097 170.693 142.505C170.799 142.656 170.852 142.807 170.852 142.958V152.994C172.694 152.873 174.084 152.812 175.02 152.812C175.337 152.812 175.496 153.318 175.496 154.33C175.496 155.327 175.428 156.188 175.292 156.913C175.156 157.638 174.975 158 174.748 158H166.434ZM184.51 158.204C183.257 158.204 182.177 158.091 181.271 157.864C180.38 157.622 179.557 157.2 178.802 156.595C177.276 155.402 176.514 153.114 176.514 149.732C176.514 148.312 176.718 147.074 177.125 146.016C177.548 144.959 178.13 144.121 178.87 143.502C180.319 142.294 182.2 141.69 184.51 141.69C185.703 141.69 186.738 141.795 187.614 142.007C188.505 142.218 189.343 142.603 190.128 143.162C191.714 144.31 192.507 146.5 192.507 149.732C192.507 152.631 191.79 154.768 190.355 156.142C188.92 157.517 186.972 158.204 184.51 158.204ZM183.763 154.33C183.944 154.542 184.193 154.647 184.51 154.647C184.828 154.647 185.077 154.542 185.258 154.33C185.439 154.104 185.59 153.635 185.711 152.926C185.832 152.201 185.892 151.196 185.892 149.913C185.892 148.629 185.832 147.64 185.711 146.945C185.59 146.25 185.439 145.797 185.258 145.586C185.077 145.374 184.828 145.269 184.51 145.269C184.193 145.269 183.944 145.374 183.763 145.586C183.582 145.797 183.431 146.25 183.31 146.945C183.189 147.64 183.129 148.629 183.129 149.913C183.129 151.196 183.189 152.201 183.31 152.926C183.431 153.635 183.582 154.104 183.763 154.33ZM205.326 157.841C204.722 157.977 204.102 158.068 203.468 158.113C202.849 158.174 202.237 158.204 201.633 158.204C201.044 158.204 200.584 158.189 200.251 158.159C199.934 158.128 199.511 158.053 198.983 157.932C198.454 157.811 197.971 157.645 197.533 157.434C197.095 157.222 196.627 156.913 196.128 156.505C195.645 156.097 195.237 155.614 194.905 155.055C194.135 153.756 193.75 152.08 193.75 150.026C193.75 148.652 193.961 147.436 194.384 146.379C194.822 145.322 195.343 144.506 195.947 143.932C196.566 143.358 197.269 142.898 198.054 142.55C199.323 141.976 200.599 141.69 201.882 141.69C203.725 141.69 205.046 141.841 205.847 142.143C206.209 142.279 206.534 142.49 206.821 142.777C207.108 143.064 207.251 143.479 207.251 144.023C207.251 144.567 207.115 145.254 206.843 146.084C206.587 146.915 206.209 147.33 205.711 147.33C205.56 147.33 205.001 147.209 204.034 146.968C203.068 146.726 202.411 146.605 202.064 146.605C201.535 146.605 201.082 146.9 200.704 147.489C200.342 148.078 200.161 148.916 200.161 150.003C200.161 151.091 200.319 151.936 200.636 152.541C200.969 153.145 201.399 153.447 201.928 153.447C202.305 153.447 202.985 153.296 203.966 152.994C204.963 152.676 205.545 152.518 205.711 152.518C206.179 152.518 206.541 152.948 206.798 153.809C207.07 154.67 207.206 155.365 207.206 155.893C207.206 156.422 207.04 156.845 206.708 157.162C206.39 157.464 205.93 157.69 205.326 157.841ZM215.095 156.845C215.065 157.283 214.831 157.585 214.393 157.751C213.97 157.917 213.2 158 212.082 158C210.964 158 210.028 157.902 209.273 157.706C208.533 157.494 208.163 157.23 208.163 156.913C208.163 156.55 208.835 154.24 210.179 149.981C211.523 145.707 212.293 143.245 212.49 142.596C212.565 142.399 213.169 142.241 214.302 142.12C215.45 141.984 216.673 141.916 217.972 141.916C219.286 141.916 220.011 142.143 220.147 142.596C223.001 152.08 224.428 156.898 224.428 157.049C224.428 157.2 224.338 157.351 224.156 157.502C223.733 157.834 222.895 158 221.642 158C218.969 158 217.602 157.683 217.542 157.049L217.383 155.576H215.208L215.095 156.845ZM216.907 151.272L216.567 147.194H216.069L215.684 151.272H216.907ZM232.938 157.456C232.938 157.622 232.47 157.758 231.534 157.864C230.613 157.955 229.684 158 228.748 158C227.826 158 227.237 157.962 226.981 157.887C226.739 157.796 226.618 157.653 226.618 157.456V147.715H223.469C223.303 147.715 223.16 147.504 223.039 147.081C222.918 146.658 222.858 146.031 222.858 145.201C222.858 144.355 222.948 143.6 223.129 142.935C223.311 142.256 223.552 141.916 223.854 141.916H236.11C236.336 141.916 236.487 142.128 236.563 142.55C236.654 142.973 236.699 143.585 236.699 144.385C236.699 145.186 236.616 145.941 236.45 146.651C236.284 147.36 236.057 147.715 235.77 147.715H232.938V157.456ZM244.387 157.456C244.387 157.622 243.926 157.758 243.005 157.864C242.084 157.955 241.155 158 240.218 158C239.297 158 238.708 157.962 238.452 157.887C238.195 157.796 238.066 157.653 238.066 157.456V143.366C238.066 143.034 238.504 142.709 239.38 142.392C240.256 142.06 241.238 141.893 242.325 141.893C243.292 141.893 243.926 142.097 244.228 142.505C244.334 142.656 244.387 142.807 244.387 142.958V157.456ZM253.864 158.204C252.611 158.204 251.531 158.091 250.625 157.864C249.734 157.622 248.911 157.2 248.156 156.595C246.63 155.402 245.868 153.114 245.868 149.732C245.868 148.312 246.072 147.074 246.479 146.016C246.902 144.959 247.484 144.121 248.224 143.502C249.673 142.294 251.554 141.69 253.864 141.69C255.057 141.69 256.092 141.795 256.968 142.007C257.859 142.218 258.697 142.603 259.482 143.162C261.068 144.31 261.861 146.5 261.861 149.732C261.861 152.631 261.144 154.768 259.709 156.142C258.274 157.517 256.326 158.204 253.864 158.204ZM253.117 154.33C253.298 154.542 253.547 154.647 253.864 154.647C254.181 154.647 254.431 154.542 254.612 154.33C254.793 154.104 254.944 153.635 255.065 152.926C255.186 152.201 255.246 151.196 255.246 149.913C255.246 148.629 255.186 147.64 255.065 146.945C254.944 146.25 254.793 145.797 254.612 145.586C254.431 145.374 254.181 145.269 253.864 145.269C253.547 145.269 253.298 145.374 253.117 145.586C252.936 145.797 252.785 146.25 252.664 146.945C252.543 147.64 252.482 148.629 252.482 149.913C252.482 151.196 252.543 152.201 252.664 152.926C252.785 153.635 252.936 154.104 253.117 154.33ZM269.651 157.343C269.651 157.539 269.182 157.698 268.246 157.819C267.325 157.94 266.404 158 265.482 158C264.561 158 263.972 157.947 263.715 157.841C263.459 157.736 263.33 157.57 263.33 157.343V143.434C263.33 143.056 263.761 142.709 264.622 142.392C265.497 142.075 266.487 141.916 267.589 141.916C267.982 141.916 268.276 141.931 268.473 141.961C268.986 142.037 269.349 142.362 269.56 142.935L271.735 148.78H271.825V143.434C271.825 143.056 272.256 142.709 273.117 142.392C273.977 142.075 274.959 141.916 276.061 141.916C277.013 141.916 277.617 142.097 277.874 142.46C278.055 142.716 278.146 142.951 278.146 143.162V157.343C278.146 157.539 277.677 157.698 276.741 157.819C275.82 157.94 274.8 158 273.683 158C272.58 158 271.976 157.857 271.871 157.57L269.764 151.997H269.651V157.343Z" fill="#FFD86A"/>
<g clip-path="url(#clip1_2001_51)">
<path d="M54.326 189V178.703H57.8053C58.6131 178.703 59.2734 178.849 59.7862 179.14C60.3024 179.429 60.6845 179.819 60.9326 180.312C61.1806 180.805 61.3046 181.354 61.3046 181.961C61.3046 182.568 61.1806 183.119 60.9326 183.615C60.6879 184.111 60.3091 184.507 59.7963 184.802C59.2835 185.093 58.6265 185.239 57.8254 185.239H55.3316V184.133H57.7852C58.3382 184.133 58.7823 184.038 59.1175 183.846C59.4527 183.655 59.6957 183.397 59.8466 183.072C60.0008 182.744 60.0778 182.373 60.0778 181.961C60.0778 181.549 60.0008 181.18 59.8466 180.855C59.6957 180.53 59.451 180.275 59.1125 180.091C58.774 179.903 58.3248 179.809 57.765 179.809H55.5729V189H54.326ZM63.1524 189V181.277H64.2987V182.444H64.3792C64.5199 182.062 64.7747 181.752 65.1434 181.514C65.5121 181.276 65.9277 181.157 66.3903 181.157C66.4774 181.157 66.5864 181.158 66.7171 181.162C66.8478 181.165 66.9467 181.17 67.0137 181.177V182.383C66.9735 182.373 66.8813 182.358 66.7372 182.338C66.5964 182.315 66.4473 182.303 66.2897 182.303C65.9143 182.303 65.5791 182.382 65.2842 182.539C64.9926 182.693 64.7613 182.908 64.5903 183.183C64.4227 183.454 64.3389 183.764 64.3389 184.113V189H63.1524ZM68.4203 189V181.277H69.6069V189H68.4203ZM69.0236 179.99C68.7923 179.99 68.5929 179.911 68.4253 179.754C68.2611 179.596 68.1789 179.407 68.1789 179.186C68.1789 178.964 68.2611 178.775 68.4253 178.618C68.5929 178.46 68.7923 178.381 69.0236 178.381C69.2549 178.381 69.4527 178.46 69.6169 178.618C69.7845 178.775 69.8683 178.964 69.8683 179.186C69.8683 179.407 69.7845 179.596 69.6169 179.754C69.4527 179.911 69.2549 179.99 69.0236 179.99ZM78.0951 181.277L75.2393 189H74.0326L71.1768 181.277H72.4639L74.5957 187.431H74.6762L76.808 181.277H78.0951ZM81.6988 189.181C81.2094 189.181 80.7653 189.089 80.3664 188.904C79.9675 188.717 79.6508 188.447 79.4162 188.095C79.1815 187.74 79.0642 187.311 79.0642 186.808C79.0642 186.365 79.1514 186.007 79.3257 185.732C79.5 185.454 79.7329 185.236 80.0245 185.078C80.3161 184.921 80.6379 184.803 80.9899 184.726C81.3452 184.646 81.7021 184.582 82.0608 184.535C82.5301 184.475 82.9105 184.43 83.2021 184.4C83.4971 184.366 83.7116 184.311 83.8457 184.234C83.9831 184.157 84.0518 184.022 84.0518 183.831V183.791C84.0518 183.295 83.9161 182.91 83.6446 182.635C83.3764 182.36 82.9692 182.222 82.4228 182.222C81.8563 182.222 81.4122 182.346 81.0904 182.595C80.7686 182.843 80.5424 183.107 80.4117 183.389L79.2854 182.987C79.4865 182.517 79.7547 182.152 80.0899 181.891C80.4284 181.626 80.7971 181.441 81.196 181.338C81.5982 181.23 81.9938 181.177 82.3826 181.177C82.6306 181.177 82.9155 181.207 83.2373 181.267C83.5624 181.324 83.8758 181.443 84.1775 181.624C84.4825 181.805 84.7356 182.078 84.9367 182.444C85.1378 182.809 85.2384 183.298 85.2384 183.912V189H84.0518V187.954H83.9915C83.911 188.122 83.777 188.301 83.5893 188.492C83.4016 188.683 83.1518 188.846 82.8401 188.98C82.5284 189.114 82.1479 189.181 81.6988 189.181ZM81.8798 188.115C82.3491 188.115 82.7446 188.023 83.0664 187.839C83.3915 187.654 83.6362 187.416 83.8004 187.125C83.968 186.833 84.0518 186.526 84.0518 186.205V185.119C84.0015 185.179 83.8909 185.234 83.72 185.284C83.5524 185.331 83.358 185.373 83.1368 185.41C82.9189 185.444 82.706 185.474 82.4982 185.501C82.2938 185.524 82.1278 185.544 82.0005 185.561C81.6921 185.601 81.4038 185.667 81.1357 185.757C80.8709 185.844 80.6564 185.977 80.4921 186.154C80.3312 186.329 80.2508 186.567 80.2508 186.868C80.2508 187.28 80.4033 187.592 80.7083 187.803C81.0167 188.011 81.4072 188.115 81.8798 188.115ZM90.7627 181.277V182.283H86.7606V181.277H90.7627ZM87.927 179.427H89.1136V186.788C89.1136 187.123 89.1622 187.374 89.2594 187.542C89.36 187.706 89.4873 187.817 89.6415 187.874C89.7991 187.927 89.965 187.954 90.1393 187.954C90.27 187.954 90.3773 187.948 90.4611 187.934C90.5449 187.917 90.6119 187.904 90.6622 187.894L90.9035 188.96C90.8231 188.99 90.7108 189.02 90.5666 189.05C90.4225 189.084 90.2398 189.101 90.0186 189.101C89.6834 189.101 89.3549 189.028 89.0332 188.884C88.7147 188.74 88.4499 188.521 88.2388 188.226C88.0309 187.931 87.927 187.559 87.927 187.11V179.427ZM95.7026 189.161C94.9585 189.161 94.3166 188.997 93.7769 188.668C93.2406 188.336 92.8267 187.874 92.535 187.28C92.2468 186.684 92.1026 185.99 92.1026 185.199C92.1026 184.408 92.2468 183.711 92.535 183.107C92.8267 182.501 93.2322 182.028 93.7518 181.69C94.2747 181.348 94.8847 181.177 95.5819 181.177C95.9841 181.177 96.3813 181.244 96.7735 181.378C97.1657 181.512 97.5227 181.73 97.8444 182.031C98.1662 182.33 98.4226 182.725 98.6137 183.218C98.8047 183.711 98.9003 184.317 98.9003 185.038V185.541H92.9473V184.515H97.6936C97.6936 184.079 97.6064 183.691 97.4321 183.349C97.2612 183.007 97.0165 182.737 96.6981 182.539C96.383 182.341 96.0109 182.243 95.5819 182.243C95.1093 182.243 94.7004 182.36 94.3551 182.595C94.0132 182.826 93.7501 183.127 93.5657 183.5C93.3814 183.872 93.2892 184.27 93.2892 184.696V185.38C93.2892 185.963 93.3898 186.458 93.5909 186.863C93.7953 187.265 94.0786 187.572 94.4406 187.783C94.8026 187.991 95.2233 188.095 95.7026 188.095C96.0143 188.095 96.2959 188.051 96.5473 187.964C96.802 187.874 97.0215 187.74 97.2059 187.562C97.3903 187.381 97.5327 187.156 97.6333 186.888L98.7796 187.21C98.6589 187.599 98.4562 187.941 98.1712 188.236C97.8863 188.527 97.5344 188.755 97.1154 188.92C96.6964 189.08 96.2255 189.161 95.7026 189.161ZM104.848 189V178.703H108.327C109.132 178.703 109.792 178.84 110.308 179.115C110.825 179.387 111.207 179.761 111.455 180.236C111.703 180.712 111.827 181.254 111.827 181.86C111.827 182.467 111.703 183.005 111.455 183.474C111.207 183.944 110.826 184.312 110.313 184.581C109.801 184.845 109.145 184.978 108.348 184.978H105.532V183.851H108.307C108.857 183.851 109.3 183.771 109.635 183.61C109.973 183.449 110.218 183.221 110.369 182.926C110.523 182.628 110.6 182.273 110.6 181.86C110.6 181.448 110.523 181.088 110.369 180.779C110.215 180.471 109.968 180.233 109.63 180.066C109.291 179.895 108.844 179.809 108.287 179.809H106.095V189H104.848ZM109.695 184.374L112.229 189H110.781L108.287 184.374H109.695ZM116.798 189.161C116.101 189.161 115.489 188.995 114.963 188.663C114.44 188.331 114.031 187.867 113.736 187.27C113.445 186.674 113.299 185.977 113.299 185.179C113.299 184.374 113.445 183.672 113.736 183.072C114.031 182.472 114.44 182.006 114.963 181.674C115.489 181.343 116.101 181.177 116.798 181.177C117.495 181.177 118.105 181.343 118.628 181.674C119.154 182.006 119.563 182.472 119.855 183.072C120.15 183.672 120.297 184.374 120.297 185.179C120.297 185.977 120.15 186.674 119.855 187.27C119.563 187.867 119.154 188.331 118.628 188.663C118.105 188.995 117.495 189.161 116.798 189.161ZM116.798 188.095C117.328 188.095 117.763 187.959 118.105 187.688C118.447 187.416 118.7 187.059 118.865 186.617C119.029 186.174 119.111 185.695 119.111 185.179C119.111 184.663 119.029 184.182 118.865 183.736C118.7 183.29 118.447 182.93 118.105 182.655C117.763 182.38 117.328 182.243 116.798 182.243C116.269 182.243 115.833 182.38 115.491 182.655C115.149 182.93 114.896 183.29 114.732 183.736C114.567 184.182 114.485 184.663 114.485 185.179C114.485 185.695 114.567 186.174 114.732 186.617C114.896 187.059 115.149 187.416 115.491 187.688C115.833 187.959 116.269 188.095 116.798 188.095ZM126.976 185.843V181.277H128.162V189H126.976V187.693H126.895C126.714 188.085 126.433 188.418 126.051 188.693C125.668 188.965 125.186 189.101 124.603 189.101C124.12 189.101 123.691 188.995 123.315 188.784C122.94 188.569 122.645 188.248 122.431 187.818C122.216 187.386 122.109 186.841 122.109 186.184V181.277H123.295V186.104C123.295 186.667 123.453 187.116 123.768 187.451C124.086 187.787 124.492 187.954 124.985 187.954C125.28 187.954 125.58 187.879 125.885 187.728C126.193 187.577 126.451 187.346 126.659 187.034C126.87 186.722 126.976 186.325 126.976 185.843ZM131.522 184.354V189H130.336V181.277H131.482V182.484H131.582C131.763 182.092 132.038 181.777 132.407 181.539C132.776 181.297 133.252 181.177 133.835 181.177C134.358 181.177 134.815 181.284 135.208 181.498C135.6 181.71 135.905 182.031 136.123 182.464C136.34 182.893 136.449 183.436 136.449 184.093V189H135.263V184.173C135.263 183.567 135.105 183.094 134.79 182.755C134.475 182.414 134.043 182.243 133.493 182.243C133.114 182.243 132.776 182.325 132.477 182.489C132.182 182.653 131.949 182.893 131.779 183.208C131.608 183.523 131.522 183.905 131.522 184.354ZM141.534 189.161C140.89 189.161 140.322 188.998 139.829 188.673C139.337 188.345 138.951 187.882 138.673 187.286C138.395 186.686 138.256 185.977 138.256 185.159C138.256 184.348 138.395 183.644 138.673 183.047C138.951 182.45 139.338 181.99 139.834 181.664C140.33 181.339 140.904 181.177 141.554 181.177C142.057 181.177 142.454 181.26 142.746 181.428C143.04 181.592 143.265 181.78 143.419 181.991C143.577 182.199 143.699 182.37 143.786 182.504H143.887V178.703H145.073V189H143.927V187.813H143.786C143.699 187.954 143.575 188.132 143.414 188.346C143.253 188.558 143.024 188.747 142.725 188.915C142.427 189.079 142.03 189.161 141.534 189.161ZM141.695 188.095C142.171 188.095 142.573 187.971 142.901 187.723C143.23 187.472 143.48 187.125 143.651 186.682C143.821 186.236 143.907 185.722 143.907 185.139C143.907 184.562 143.823 184.058 143.656 183.625C143.488 183.189 143.24 182.851 142.911 182.61C142.583 182.365 142.177 182.243 141.695 182.243C141.192 182.243 140.773 182.372 140.438 182.63C140.106 182.884 139.856 183.231 139.689 183.67C139.524 184.106 139.442 184.596 139.442 185.139C139.442 185.688 139.526 186.188 139.694 186.637C139.865 187.083 140.116 187.438 140.448 187.703C140.783 187.964 141.199 188.095 141.695 188.095Z" fill="#FFD86A"/>
<path d="M54.326 211V200.703H57.8053C58.6131 200.703 59.2734 200.849 59.7862 201.14C60.3024 201.429 60.6845 201.819 60.9326 202.312C61.1806 202.805 61.3046 203.354 61.3046 203.961C61.3046 204.568 61.1806 205.119 60.9326 205.615C60.6879 206.111 60.3091 206.507 59.7963 206.802C59.2835 207.093 58.6265 207.239 57.8254 207.239H55.3316V206.133H57.7852C58.3382 206.133 58.7823 206.038 59.1175 205.846C59.4527 205.655 59.6957 205.397 59.8466 205.072C60.0008 204.744 60.0778 204.373 60.0778 203.961C60.0778 203.549 60.0008 203.18 59.8466 202.855C59.6957 202.53 59.451 202.275 59.1125 202.091C58.774 201.903 58.3248 201.809 57.765 201.809H55.5729V211H54.326ZM68.0193 207.843V203.277H69.2059V211H68.0193V209.693H67.9389C67.7579 210.085 67.4763 210.418 67.0942 210.693C66.7121 210.965 66.2294 211.101 65.6462 211.101C65.1635 211.101 64.7345 210.995 64.359 210.784C63.9836 210.569 63.6887 210.248 63.4742 209.818C63.2596 209.386 63.1524 208.841 63.1524 208.184V203.277H64.3389V208.104C64.3389 208.667 64.4965 209.116 64.8116 209.451C65.13 209.787 65.5356 209.954 66.0283 209.954C66.3233 209.954 66.6233 209.879 66.9283 209.728C67.2366 209.577 67.4947 209.346 67.7026 209.034C67.9137 208.722 68.0193 208.325 68.0193 207.843ZM71.5401 211V200.703H72.7266V204.504H72.8272C72.9143 204.37 73.035 204.199 73.1892 203.991C73.3467 203.78 73.5713 203.592 73.8629 203.428C74.1579 203.26 74.5568 203.177 75.0595 203.177C75.7098 203.177 76.283 203.339 76.7791 203.664C77.2751 203.99 77.6623 204.45 77.9405 205.047C78.2187 205.644 78.3578 206.348 78.3578 207.159C78.3578 207.977 78.2187 208.686 77.9405 209.286C77.6623 209.882 77.2768 210.345 76.7841 210.673C76.2914 210.998 75.7232 211.161 75.0797 211.161C74.5836 211.161 74.1864 211.079 73.8881 210.915C73.5897 210.747 73.3601 210.558 73.1992 210.346C73.0383 210.132 72.9143 209.954 72.8272 209.813H72.6864V211H71.5401ZM72.7065 207.139C72.7065 207.722 72.792 208.236 72.9629 208.682C73.1339 209.125 73.3836 209.472 73.7121 209.723C74.0406 209.971 74.4428 210.095 74.9188 210.095C75.4148 210.095 75.8288 209.964 76.1606 209.703C76.4958 209.438 76.7472 209.083 76.9148 208.637C77.0858 208.188 77.1712 207.688 77.1712 207.139C77.1712 206.596 77.0874 206.106 76.9198 205.67C76.7556 205.231 76.5059 204.884 76.1707 204.63C75.8389 204.372 75.4215 204.243 74.9188 204.243C74.4361 204.243 74.0305 204.365 73.702 204.61C73.3735 204.851 73.1255 205.189 72.9579 205.625C72.7903 206.058 72.7065 206.562 72.7065 207.139ZM81.3594 200.703V211H80.1728V200.703H81.3594ZM83.5327 211V203.277H84.7193V211H83.5327ZM84.136 201.99C83.9048 201.99 83.7053 201.911 83.5377 201.754C83.3735 201.596 83.2914 201.407 83.2914 201.186C83.2914 200.964 83.3735 200.775 83.5377 200.618C83.7053 200.46 83.9048 200.381 84.136 200.381C84.3673 200.381 84.5651 200.46 84.7293 200.618C84.8969 200.775 84.9807 200.964 84.9807 201.186C84.9807 201.407 84.8969 201.596 84.7293 201.754C84.5651 201.911 84.3673 201.99 84.136 201.99ZM90.0299 211.161C89.3059 211.161 88.6825 210.99 88.1596 210.648C87.6367 210.306 87.2344 209.835 86.9529 209.235C86.6713 208.635 86.5305 207.95 86.5305 207.179C86.5305 206.395 86.6747 205.702 86.9629 205.102C87.2546 204.499 87.6601 204.028 88.1797 203.69C88.7026 203.348 89.3126 203.177 90.0098 203.177C90.5528 203.177 91.0422 203.277 91.4779 203.478C91.9137 203.679 92.2707 203.961 92.5489 204.323C92.8271 204.685 92.9997 205.107 93.0667 205.59H91.8802C91.7897 205.238 91.5885 204.926 91.2768 204.655C90.9684 204.38 90.5528 204.243 90.0299 204.243C89.5674 204.243 89.1618 204.363 88.8132 204.605C88.4679 204.843 88.1981 205.179 88.0037 205.615C87.8126 206.048 87.7171 206.555 87.7171 207.139C87.7171 207.735 87.811 208.255 87.9987 208.697C88.1897 209.14 88.4579 209.483 88.8031 209.728C89.1517 209.973 89.5607 210.095 90.0299 210.095C90.3383 210.095 90.6182 210.041 90.8696 209.934C91.121 209.827 91.3338 209.673 91.5081 209.472C91.6824 209.27 91.8064 209.029 91.8802 208.748H93.0667C92.9997 209.203 92.8338 209.614 92.569 209.979C92.3075 210.341 91.9606 210.63 91.5282 210.844C91.0992 211.055 90.5997 211.161 90.0299 211.161ZM98.9443 211V200.703H102.424C103.228 200.703 103.888 200.84 104.404 201.115C104.921 201.387 105.303 201.761 105.551 202.236C105.799 202.712 105.923 203.254 105.923 203.86C105.923 204.467 105.799 205.005 105.551 205.474C105.303 205.944 104.922 206.312 104.41 206.581C103.897 206.845 103.241 206.978 102.444 206.978H99.6281V205.851H102.403C102.953 205.851 103.396 205.771 103.731 205.61C104.069 205.449 104.314 205.221 104.465 204.926C104.619 204.628 104.696 204.273 104.696 203.86C104.696 203.448 104.619 203.088 104.465 202.779C104.311 202.471 104.064 202.233 103.726 202.066C103.387 201.895 102.94 201.809 102.383 201.809H100.191V211H98.9443ZM103.791 206.374L106.325 211H104.877L102.383 206.374H103.791ZM110.894 211.161C110.197 211.161 109.585 210.995 109.059 210.663C108.536 210.331 108.127 209.867 107.832 209.27C107.541 208.674 107.395 207.977 107.395 207.179C107.395 206.374 107.541 205.672 107.832 205.072C108.127 204.472 108.536 204.006 109.059 203.674C109.585 203.343 110.197 203.177 110.894 203.177C111.591 203.177 112.201 203.343 112.724 203.674C113.251 204.006 113.659 204.472 113.951 205.072C114.246 205.672 114.394 206.374 114.394 207.179C114.394 207.977 114.246 208.674 113.951 209.27C113.659 209.867 113.251 210.331 112.724 210.663C112.201 210.995 111.591 211.161 110.894 211.161ZM110.894 210.095C111.424 210.095 111.86 209.959 112.201 209.688C112.543 209.416 112.796 209.059 112.961 208.617C113.125 208.174 113.207 207.695 113.207 207.179C113.207 206.663 113.125 206.182 112.961 205.736C112.796 205.29 112.543 204.93 112.201 204.655C111.86 204.38 111.424 204.243 110.894 204.243C110.365 204.243 109.929 204.38 109.587 204.655C109.245 204.93 108.992 205.29 108.828 205.736C108.663 206.182 108.581 206.663 108.581 207.179C108.581 207.695 108.663 208.174 108.828 208.617C108.992 209.059 109.245 209.416 109.587 209.688C109.929 209.959 110.365 210.095 110.894 210.095ZM121.072 207.843V203.277H122.258V211H121.072V209.693H120.991C120.81 210.085 120.529 210.418 120.147 210.693C119.765 210.965 119.282 211.101 118.699 211.101C118.216 211.101 117.787 210.995 117.412 210.784C117.036 210.569 116.741 210.248 116.527 209.818C116.312 209.386 116.205 208.841 116.205 208.184V203.277H117.391V208.104C117.391 208.667 117.549 209.116 117.864 209.451C118.182 209.787 118.588 209.954 119.081 209.954C119.376 209.954 119.676 209.879 119.981 209.728C120.289 209.577 120.547 209.346 120.755 209.034C120.966 208.722 121.072 208.325 121.072 207.843ZM125.618 206.354V211H124.432V203.277H125.578V204.484H125.679C125.86 204.092 126.134 203.777 126.503 203.539C126.872 203.297 127.348 203.177 127.931 203.177C128.454 203.177 128.911 203.284 129.304 203.498C129.696 203.71 130.001 204.031 130.219 204.464C130.437 204.893 130.545 205.436 130.545 206.093V211H129.359V206.173C129.359 205.567 129.201 205.094 128.886 204.755C128.571 204.414 128.139 204.243 127.589 204.243C127.21 204.243 126.872 204.325 126.573 204.489C126.279 204.653 126.046 204.893 125.875 205.208C125.704 205.523 125.618 205.905 125.618 206.354ZM135.63 211.161C134.986 211.161 134.418 210.998 133.925 210.673C133.433 210.345 133.047 209.882 132.769 209.286C132.491 208.686 132.352 207.977 132.352 207.159C132.352 206.348 132.491 205.644 132.769 205.047C133.047 204.45 133.434 203.99 133.93 203.664C134.427 203.339 135 203.177 135.65 203.177C136.153 203.177 136.55 203.26 136.842 203.428C137.137 203.592 137.361 203.78 137.515 203.991C137.673 204.199 137.795 204.37 137.882 204.504H137.983V200.703H139.169V211H138.023V209.813H137.882C137.795 209.954 137.671 210.132 137.51 210.346C137.349 210.558 137.12 210.747 136.821 210.915C136.523 211.079 136.126 211.161 135.63 211.161ZM135.791 210.095C136.267 210.095 136.669 209.971 136.997 209.723C137.326 209.472 137.576 209.125 137.747 208.682C137.918 208.236 138.003 207.722 138.003 207.139C138.003 206.562 137.919 206.058 137.752 205.625C137.584 205.189 137.336 204.851 137.007 204.61C136.679 204.365 136.273 204.243 135.791 204.243C135.288 204.243 134.869 204.372 134.534 204.63C134.202 204.884 133.952 205.231 133.785 205.67C133.62 206.106 133.538 206.596 133.538 207.139C133.538 207.688 133.622 208.188 133.79 208.637C133.961 209.083 134.212 209.438 134.544 209.703C134.879 209.964 135.295 210.095 135.791 210.095Z" fill="#FFD86A"/>
</g>
<path d="M369.534 157.456C369.534 157.622 369.066 157.758 368.129 157.864C367.208 157.955 366.279 158 365.343 158C364.422 158 363.833 157.962 363.576 157.887C363.334 157.796 363.214 157.653 363.214 157.456V147.715H360.065C359.899 147.715 359.755 147.504 359.634 147.081C359.513 146.658 359.453 146.031 359.453 145.201C359.453 144.355 359.544 143.6 359.725 142.935C359.906 142.256 360.148 141.916 360.45 141.916H372.705C372.932 141.916 373.083 142.128 373.158 142.55C373.249 142.973 373.294 143.585 373.294 144.385C373.294 145.186 373.211 145.941 373.045 146.651C372.879 147.36 372.652 147.715 372.366 147.715H369.534V157.456ZM382.319 158.204C381.065 158.204 379.985 158.091 379.079 157.864C378.188 157.622 377.365 157.2 376.61 156.595C375.085 155.402 374.322 153.114 374.322 149.732C374.322 148.312 374.526 147.074 374.934 146.016C375.357 144.959 375.938 144.121 376.678 143.502C378.128 142.294 380.008 141.69 382.319 141.69C383.512 141.69 384.546 141.795 385.422 142.007C386.313 142.218 387.151 142.603 387.937 143.162C389.522 144.31 390.315 146.5 390.315 149.732C390.315 152.631 389.598 154.768 388.163 156.142C386.729 157.517 384.78 158.204 382.319 158.204ZM381.571 154.33C381.752 154.542 382.002 154.647 382.319 154.647C382.636 154.647 382.885 154.542 383.066 154.33C383.247 154.104 383.398 153.635 383.519 152.926C383.64 152.201 383.701 151.196 383.701 149.913C383.701 148.629 383.64 147.64 383.519 146.945C383.398 146.25 383.247 145.797 383.066 145.586C382.885 145.374 382.636 145.269 382.319 145.269C382.002 145.269 381.752 145.374 381.571 145.586C381.39 145.797 381.239 146.25 381.118 146.945C380.997 147.64 380.937 148.629 380.937 149.913C380.937 151.196 380.997 152.201 381.118 152.926C381.239 153.635 381.39 154.104 381.571 154.33ZM398.105 157.298C398.105 157.494 397.637 157.653 396.7 157.773C395.779 157.894 394.858 157.955 393.937 157.955C393.015 157.955 392.426 157.902 392.17 157.796C391.913 157.69 391.785 157.524 391.785 157.298V143.411C391.785 143.019 392.207 142.671 393.053 142.369C393.914 142.067 394.903 141.916 396.021 141.916C396.942 141.916 397.539 142.097 397.81 142.46C398.007 142.716 398.105 142.951 398.105 143.162V146.9H398.286C398.286 146.824 398.513 146.198 398.966 145.02C399.827 142.8 400.453 141.69 400.846 141.69C401.586 141.69 402.628 141.909 403.972 142.346C404.622 142.558 405.18 142.868 405.649 143.275C406.117 143.668 406.351 144.106 406.351 144.589C406.351 144.891 406.041 145.48 405.422 146.356C404.818 147.217 403.897 148.372 402.658 149.822C402.945 150.124 403.308 150.509 403.746 150.977C404.184 151.446 404.765 152.148 405.49 153.084C406.23 154.005 406.6 154.662 406.6 155.055C406.6 155.448 406.245 155.908 405.535 156.437C404.825 156.95 404.07 157.373 403.27 157.706C402.469 158.023 401.873 158.181 401.48 158.181C401.224 158.181 400.869 157.796 400.416 157.026C399.978 156.241 399.441 155.07 398.807 153.515L398.105 154.353V157.298ZM419.331 158H409.726C408.986 158 408.487 157.947 408.231 157.841C407.974 157.736 407.846 157.57 407.846 157.343V143.003C407.846 142.611 408.019 142.331 408.367 142.165C408.729 141.999 409.371 141.916 410.292 141.916H419.399C419.716 141.916 419.874 142.445 419.874 143.502C419.874 144.544 419.807 145.344 419.671 145.903C419.535 146.447 419.353 146.719 419.127 146.719C418.145 146.719 416.492 146.62 414.166 146.424V147.942C416.401 147.851 417.858 147.806 418.538 147.806C418.946 147.806 419.15 148.282 419.15 149.233C419.15 150.185 419.067 150.909 418.9 151.408C418.749 151.891 418.538 152.133 418.266 152.133L414.166 152.042V153.492C416.794 153.296 418.606 153.197 419.603 153.197C419.92 153.197 420.078 153.726 420.078 154.783C420.078 155.84 420.01 156.641 419.874 157.184C419.739 157.728 419.557 158 419.331 158ZM427.992 157.343C427.992 157.539 427.524 157.698 426.588 157.819C425.667 157.94 424.745 158 423.824 158C422.903 158 422.314 157.947 422.057 157.841C421.8 157.736 421.672 157.57 421.672 157.343V143.434C421.672 143.056 422.102 142.709 422.963 142.392C423.839 142.075 424.828 141.916 425.931 141.916C426.324 141.916 426.618 141.931 426.814 141.961C427.328 142.037 427.69 142.362 427.902 142.935L430.076 148.78H430.167V143.434C430.167 143.056 430.598 142.709 431.458 142.392C432.319 142.075 433.301 141.916 434.403 141.916C435.355 141.916 435.959 142.097 436.216 142.46C436.397 142.716 436.487 142.951 436.487 143.162V157.343C436.487 157.539 436.019 157.698 435.083 157.819C434.162 157.94 433.142 158 432.025 158C430.922 158 430.318 157.857 430.212 157.57L428.106 151.997H427.992V157.343ZM449.694 157.343C449.694 157.539 449.233 157.698 448.312 157.819C447.391 157.94 446.47 158 445.548 158C444.627 158 444.038 157.947 443.781 157.841C443.525 157.736 443.396 157.57 443.396 157.343V142.777C443.396 142.052 445.571 141.69 449.921 141.69C452.548 141.69 454.285 141.871 455.131 142.233C456.158 142.656 456.852 143.23 457.215 143.955C457.698 144.891 457.94 146.092 457.94 147.557C457.94 149.565 457.592 151.023 456.898 151.929C456.399 152.593 455.901 153.024 455.403 153.22C454.904 153.416 454.489 153.56 454.157 153.651C453.84 153.726 453.439 153.786 452.956 153.832C452.292 153.892 451.385 153.922 450.238 153.922L449.694 153.9V157.343ZM449.717 150.139H450.26C450.547 150.139 450.774 150.102 450.94 150.026C451.106 149.935 451.25 149.709 451.37 149.346C451.506 148.969 451.574 148.448 451.574 147.783C451.574 147.104 451.499 146.59 451.348 146.243C451.212 145.88 451.068 145.669 450.917 145.609C450.781 145.533 450.615 145.495 450.419 145.495H449.717V150.139ZM465.756 157.343C465.756 157.539 465.295 157.698 464.374 157.819C463.453 157.94 462.524 158 461.588 158C460.666 158 460.07 157.947 459.798 157.841C459.541 157.736 459.413 157.57 459.413 157.343V142.777C459.413 142.384 459.904 142.105 460.885 141.939C461.882 141.773 463.136 141.69 464.646 141.69C466.156 141.69 467.13 141.697 467.568 141.712C468.021 141.712 468.55 141.735 469.154 141.78C469.758 141.825 470.234 141.901 470.581 142.007C470.944 142.112 471.336 142.248 471.759 142.414C472.197 142.581 472.537 142.8 472.779 143.071C473.02 143.328 473.254 143.638 473.481 144C473.889 144.65 474.092 145.578 474.092 146.787C474.092 147.98 473.889 148.991 473.481 149.822C473.088 150.638 472.56 151.257 471.895 151.68C473.632 154.413 474.5 156.15 474.5 156.89C474.5 157.63 473.013 158 470.037 158C469.177 158 468.58 157.962 468.248 157.887C467.916 157.811 467.704 157.645 467.614 157.388L466.141 152.722L465.756 152.699V157.343ZM465.756 149.21H466.345C467.221 149.21 467.659 148.531 467.659 147.172C467.659 146.477 467.538 145.986 467.296 145.699C467.07 145.412 466.806 145.269 466.504 145.269H465.756V149.21ZM481.949 157.456C481.949 157.622 481.488 157.758 480.567 157.864C479.646 157.955 478.717 158 477.781 158C476.86 158 476.271 157.962 476.014 157.887C475.757 157.796 475.629 157.653 475.629 157.456V143.366C475.629 143.034 476.067 142.709 476.943 142.392C477.819 142.06 478.8 141.893 479.888 141.893C480.854 141.893 481.488 142.097 481.791 142.505C481.896 142.656 481.949 142.807 481.949 142.958V157.456ZM495.119 157.841C494.515 157.977 493.896 158.068 493.262 158.113C492.642 158.174 492.031 158.204 491.427 158.204C490.838 158.204 490.377 158.189 490.045 158.159C489.728 158.128 489.305 158.053 488.776 157.932C488.248 157.811 487.764 157.645 487.326 157.434C486.888 157.222 486.42 156.913 485.922 156.505C485.439 156.097 485.031 155.614 484.699 155.055C483.928 153.756 483.543 152.08 483.543 150.026C483.543 148.652 483.755 147.436 484.178 146.379C484.616 145.322 485.137 144.506 485.741 143.932C486.36 143.358 487.062 142.898 487.847 142.55C489.116 141.976 490.392 141.69 491.676 141.69C493.518 141.69 494.84 141.841 495.64 142.143C496.003 142.279 496.327 142.49 496.614 142.777C496.901 143.064 497.045 143.479 497.045 144.023C497.045 144.567 496.909 145.254 496.637 146.084C496.38 146.915 496.003 147.33 495.504 147.33C495.353 147.33 494.795 147.209 493.828 146.968C492.861 146.726 492.204 146.605 491.857 146.605C491.329 146.605 490.875 146.9 490.498 147.489C490.135 148.078 489.954 148.916 489.954 150.003C489.954 151.091 490.113 151.936 490.43 152.541C490.762 153.145 491.193 153.447 491.721 153.447C492.099 153.447 492.778 153.296 493.76 152.994C494.757 152.676 495.338 152.518 495.504 152.518C495.972 152.518 496.335 152.948 496.592 153.809C496.864 154.67 496.999 155.365 496.999 155.893C496.999 156.422 496.833 156.845 496.501 157.162C496.184 157.464 495.723 157.69 495.119 157.841ZM510.121 158H500.516C499.776 158 499.278 157.947 499.021 157.841C498.765 157.736 498.636 157.57 498.636 157.343V143.003C498.636 142.611 498.81 142.331 499.157 142.165C499.52 141.999 500.161 141.916 501.083 141.916H510.189C510.507 141.916 510.665 142.445 510.665 143.502C510.665 144.544 510.597 145.344 510.461 145.903C510.325 146.447 510.144 146.719 509.918 146.719C508.936 146.719 507.282 146.62 504.956 146.424V147.942C507.192 147.851 508.649 147.806 509.329 147.806C509.736 147.806 509.94 148.282 509.94 149.233C509.94 150.185 509.857 150.909 509.691 151.408C509.54 151.891 509.329 152.133 509.057 152.133L504.956 152.042V153.492C507.584 153.296 509.397 153.197 510.393 153.197C510.71 153.197 510.869 153.726 510.869 154.783C510.869 155.84 510.801 156.641 510.665 157.184C510.529 157.728 510.348 158 510.121 158Z" fill="#FFD86A"/>
<g clip-path="url(#clip2_2001_51)">
<path d="M363.424 189.141C362.667 189.141 362.022 188.935 361.489 188.522C360.956 188.107 360.549 187.505 360.267 186.717C359.985 185.926 359.845 184.971 359.845 183.851C359.845 182.739 359.985 181.788 360.267 181.001C360.552 180.21 360.961 179.606 361.494 179.191C362.03 178.772 362.674 178.562 363.424 178.562C364.175 178.562 364.817 178.772 365.35 179.191C365.886 179.606 366.295 180.21 366.577 181.001C366.862 181.788 367.004 182.739 367.004 183.851C367.004 184.971 366.864 185.926 366.582 186.717C366.3 187.505 365.893 188.107 365.36 188.522C364.827 188.935 364.182 189.141 363.424 189.141ZM363.424 188.035C364.175 188.035 364.759 187.673 365.174 186.949C365.59 186.225 365.798 185.192 365.798 183.851C365.798 182.96 365.702 182.201 365.511 181.574C365.323 180.947 365.052 180.469 364.697 180.141C364.345 179.812 363.921 179.648 363.424 179.648C362.68 179.648 362.099 180.015 361.68 180.749C361.261 181.48 361.051 182.514 361.051 183.851C361.051 184.743 361.145 185.501 361.333 186.124C361.521 186.748 361.79 187.222 362.142 187.547C362.498 187.872 362.925 188.035 363.424 188.035ZM369.44 189.08C369.192 189.08 368.979 188.992 368.802 188.814C368.624 188.636 368.535 188.423 368.535 188.175C368.535 187.927 368.624 187.715 368.802 187.537C368.979 187.359 369.192 187.27 369.44 187.27C369.688 187.27 369.901 187.359 370.079 187.537C370.256 187.715 370.345 187.927 370.345 188.175C370.345 188.34 370.303 188.491 370.22 188.628C370.139 188.765 370.03 188.876 369.893 188.96C369.759 189.04 369.608 189.08 369.44 189.08ZM375.454 189.141C374.696 189.141 374.051 188.935 373.518 188.522C372.985 188.107 372.578 187.505 372.296 186.717C372.015 185.926 371.874 184.971 371.874 183.851C371.874 182.739 372.015 181.788 372.296 181.001C372.581 180.21 372.99 179.606 373.523 179.191C374.059 178.772 374.703 178.562 375.454 178.562C376.204 178.562 376.846 178.772 377.379 179.191C377.916 179.606 378.324 180.21 378.606 181.001C378.891 181.788 379.033 182.739 379.033 183.851C379.033 184.971 378.893 185.926 378.611 186.717C378.33 187.505 377.922 188.107 377.389 188.522C376.856 188.935 376.211 189.141 375.454 189.141ZM375.454 188.035C376.204 188.035 376.788 187.673 377.203 186.949C377.619 186.225 377.827 185.192 377.827 183.851C377.827 182.96 377.731 182.201 377.54 181.574C377.352 180.947 377.081 180.469 376.726 180.141C376.374 179.812 375.95 179.648 375.454 179.648C374.709 179.648 374.128 180.015 373.709 180.749C373.29 181.48 373.08 182.514 373.08 183.851C373.08 184.743 373.174 185.501 373.362 186.124C373.55 186.748 373.82 187.222 374.171 187.547C374.527 187.872 374.954 188.035 375.454 188.035ZM384.303 189.141C383.545 189.141 382.9 188.935 382.367 188.522C381.834 188.107 381.427 187.505 381.145 186.717C380.864 185.926 380.723 184.971 380.723 183.851C380.723 182.739 380.864 181.788 381.145 181.001C381.43 180.21 381.839 179.606 382.372 179.191C382.908 178.772 383.552 178.562 384.303 178.562C385.053 178.562 385.695 178.772 386.228 179.191C386.765 179.606 387.173 180.21 387.455 181.001C387.74 181.788 387.882 182.739 387.882 183.851C387.882 184.971 387.742 185.926 387.46 186.717C387.179 187.505 386.771 188.107 386.238 188.522C385.705 188.935 385.06 189.141 384.303 189.141ZM384.303 188.035C385.053 188.035 385.637 187.673 386.052 186.949C386.468 186.225 386.676 185.192 386.676 183.851C386.676 182.96 386.58 182.201 386.389 181.574C386.201 180.947 385.93 180.469 385.575 180.141C385.223 179.812 384.799 179.648 384.303 179.648C383.558 179.648 382.977 180.015 382.558 180.749C382.139 181.48 381.929 182.514 381.929 183.851C381.929 184.743 382.023 185.501 382.211 186.124C382.399 186.748 382.669 187.222 383.02 187.547C383.376 187.872 383.803 188.035 384.303 188.035ZM393.152 189.141C392.394 189.141 391.749 188.935 391.216 188.522C390.683 188.107 390.276 187.505 389.994 186.717C389.713 185.926 389.572 184.971 389.572 183.851C389.572 182.739 389.713 181.788 389.994 181.001C390.279 180.21 390.688 179.606 391.221 179.191C391.757 178.772 392.401 178.562 393.152 178.562C393.902 178.562 394.544 178.772 395.077 179.191C395.614 179.606 396.022 180.21 396.304 181.001C396.589 181.788 396.731 182.739 396.731 183.851C396.731 184.971 396.591 185.926 396.309 186.717C396.027 187.505 395.62 188.107 395.087 188.522C394.554 188.935 393.909 189.141 393.152 189.141ZM393.152 188.035C393.902 188.035 394.486 187.673 394.901 186.949C395.317 186.225 395.525 185.192 395.525 183.851C395.525 182.96 395.429 182.201 395.238 181.574C395.05 180.947 394.779 180.469 394.424 180.141C394.072 179.812 393.648 179.648 393.152 179.648C392.407 179.648 391.826 180.015 391.407 180.749C390.988 181.48 390.778 182.514 390.778 183.851C390.778 184.743 390.872 185.501 391.06 186.124C391.248 186.748 391.518 187.222 391.869 187.547C392.225 187.872 392.652 188.035 393.152 188.035ZM402.001 189.141C401.243 189.141 400.598 188.935 400.065 188.522C399.532 188.107 399.125 187.505 398.843 186.717C398.562 185.926 398.421 184.971 398.421 183.851C398.421 182.739 398.562 181.788 398.843 181.001C399.128 180.21 399.537 179.606 400.07 179.191C400.606 178.772 401.25 178.562 402.001 178.562C402.751 178.562 403.393 178.772 403.926 179.191C404.463 179.606 404.871 180.21 405.153 181.001C405.438 181.788 405.58 182.739 405.58 183.851C405.58 184.971 405.44 185.926 405.158 186.717C404.876 187.505 404.469 188.107 403.936 188.522C403.403 188.935 402.758 189.141 402.001 189.141ZM402.001 188.035C402.751 188.035 403.335 187.673 403.75 186.949C404.166 186.225 404.374 185.192 404.374 183.851C404.374 182.96 404.278 182.201 404.087 181.574C403.899 180.947 403.628 180.469 403.273 180.141C402.921 179.812 402.497 179.648 402.001 179.648C401.256 179.648 400.675 180.015 400.256 180.749C399.837 181.48 399.627 182.514 399.627 183.851C399.627 184.743 399.721 185.501 399.909 186.124C400.097 186.748 400.367 187.222 400.718 187.547C401.074 187.872 401.501 188.035 402.001 188.035ZM410.85 189.141C410.092 189.141 409.447 188.935 408.914 188.522C408.381 188.107 407.974 187.505 407.692 186.717C407.411 185.926 407.27 184.971 407.27 183.851C407.27 182.739 407.411 181.788 407.692 181.001C407.977 180.21 408.386 179.606 408.919 179.191C409.455 178.772 410.099 178.562 410.85 178.562C411.6 178.562 412.242 178.772 412.775 179.191C413.312 179.606 413.72 180.21 414.002 181.001C414.287 181.788 414.429 182.739 414.429 183.851C414.429 184.971 414.289 185.926 414.007 186.717C413.725 187.505 413.318 188.107 412.785 188.522C412.252 188.935 411.607 189.141 410.85 189.141ZM410.85 188.035C411.6 188.035 412.184 187.673 412.599 186.949C413.015 186.225 413.223 185.192 413.223 183.851C413.223 182.96 413.127 182.201 412.936 181.574C412.748 180.947 412.477 180.469 412.122 180.141C411.77 179.812 411.346 179.648 410.85 179.648C410.105 179.648 409.524 180.015 409.105 180.749C408.686 181.48 408.476 182.514 408.476 183.851C408.476 184.743 408.57 185.501 408.758 186.124C408.946 186.748 409.216 187.222 409.567 187.547C409.923 187.872 410.35 188.035 410.85 188.035ZM419.96 178.703V189H418.713V180.01H418.653L416.139 181.679V180.412L418.713 178.703H419.96ZM426.139 189.141C425.549 189.141 425.018 189.023 424.545 188.789C424.073 188.554 423.694 188.232 423.409 187.823C423.124 187.415 422.968 186.949 422.941 186.426H424.148C424.195 186.892 424.406 187.277 424.782 187.582C425.16 187.884 425.613 188.035 426.139 188.035C426.562 188.035 426.937 187.936 427.265 187.738C427.597 187.54 427.857 187.269 428.045 186.924C428.236 186.575 428.331 186.181 428.331 185.742C428.331 185.293 428.232 184.892 428.035 184.54C427.84 184.185 427.572 183.905 427.23 183.701C426.888 183.496 426.498 183.392 426.059 183.389C425.744 183.386 425.42 183.434 425.088 183.535C424.757 183.632 424.483 183.758 424.269 183.912L423.102 183.771L423.726 178.703H429.075V179.809H424.772L424.41 182.846H424.47C424.681 182.678 424.946 182.539 425.264 182.429C425.583 182.318 425.915 182.263 426.26 182.263C426.89 182.263 427.451 182.414 427.944 182.715C428.44 183.014 428.829 183.422 429.111 183.942C429.396 184.462 429.538 185.055 429.538 185.722C429.538 186.379 429.391 186.965 429.096 187.482C428.804 187.994 428.402 188.4 427.889 188.698C427.376 188.993 426.793 189.141 426.139 189.141Z" fill="#FFD86A"/>
<path d="M363.424 211.141C362.667 211.141 362.022 210.935 361.489 210.522C360.956 210.107 360.549 209.505 360.267 208.717C359.985 207.926 359.845 206.971 359.845 205.851C359.845 204.739 359.985 203.788 360.267 203.001C360.552 202.21 360.961 201.606 361.494 201.191C362.03 200.772 362.674 200.562 363.424 200.562C364.175 200.562 364.817 200.772 365.35 201.191C365.886 201.606 366.295 202.21 366.577 203.001C366.862 203.788 367.004 204.739 367.004 205.851C367.004 206.971 366.864 207.926 366.582 208.717C366.3 209.505 365.893 210.107 365.36 210.522C364.827 210.935 364.182 211.141 363.424 211.141ZM363.424 210.035C364.175 210.035 364.759 209.673 365.174 208.949C365.59 208.225 365.798 207.192 365.798 205.851C365.798 204.96 365.702 204.201 365.511 203.574C365.323 202.947 365.052 202.469 364.697 202.141C364.345 201.812 363.921 201.648 363.424 201.648C362.68 201.648 362.099 202.015 361.68 202.749C361.261 203.48 361.051 204.514 361.051 205.851C361.051 206.743 361.145 207.501 361.333 208.124C361.521 208.748 361.79 209.222 362.142 209.547C362.498 209.872 362.925 210.035 363.424 210.035ZM369.44 211.08C369.192 211.08 368.979 210.992 368.802 210.814C368.624 210.636 368.535 210.423 368.535 210.175C368.535 209.927 368.624 209.715 368.802 209.537C368.979 209.359 369.192 209.27 369.44 209.27C369.688 209.27 369.901 209.359 370.079 209.537C370.256 209.715 370.345 209.927 370.345 210.175C370.345 210.34 370.303 210.491 370.22 210.628C370.139 210.765 370.03 210.876 369.893 210.96C369.759 211.04 369.608 211.08 369.44 211.08ZM375.454 211.141C374.696 211.141 374.051 210.935 373.518 210.522C372.985 210.107 372.578 209.505 372.296 208.717C372.015 207.926 371.874 206.971 371.874 205.851C371.874 204.739 372.015 203.788 372.296 203.001C372.581 202.21 372.99 201.606 373.523 201.191C374.059 200.772 374.703 200.562 375.454 200.562C376.204 200.562 376.846 200.772 377.379 201.191C377.916 201.606 378.324 202.21 378.606 203.001C378.891 203.788 379.033 204.739 379.033 205.851C379.033 206.971 378.893 207.926 378.611 208.717C378.33 209.505 377.922 210.107 377.389 210.522C376.856 210.935 376.211 211.141 375.454 211.141ZM375.454 210.035C376.204 210.035 376.788 209.673 377.203 208.949C377.619 208.225 377.827 207.192 377.827 205.851C377.827 204.96 377.731 204.201 377.54 203.574C377.352 202.947 377.081 202.469 376.726 202.141C376.374 201.812 375.95 201.648 375.454 201.648C374.709 201.648 374.128 202.015 373.709 202.749C373.29 203.48 373.08 204.514 373.08 205.851C373.08 206.743 373.174 207.501 373.362 208.124C373.55 208.748 373.82 209.222 374.171 209.547C374.527 209.872 374.954 210.035 375.454 210.035ZM384.303 211.141C383.545 211.141 382.9 210.935 382.367 210.522C381.834 210.107 381.427 209.505 381.145 208.717C380.864 207.926 380.723 206.971 380.723 205.851C380.723 204.739 380.864 203.788 381.145 203.001C381.43 202.21 381.839 201.606 382.372 201.191C382.908 200.772 383.552 200.562 384.303 200.562C385.053 200.562 385.695 200.772 386.228 201.191C386.765 201.606 387.173 202.21 387.455 203.001C387.74 203.788 387.882 204.739 387.882 205.851C387.882 206.971 387.742 207.926 387.46 208.717C387.179 209.505 386.771 210.107 386.238 210.522C385.705 210.935 385.06 211.141 384.303 211.141ZM384.303 210.035C385.053 210.035 385.637 209.673 386.052 208.949C386.468 208.225 386.676 207.192 386.676 205.851C386.676 204.96 386.58 204.201 386.389 203.574C386.201 202.947 385.93 202.469 385.575 202.141C385.223 201.812 384.799 201.648 384.303 201.648C383.558 201.648 382.977 202.015 382.558 202.749C382.139 203.48 381.929 204.514 381.929 205.851C381.929 206.743 382.023 207.501 382.211 208.124C382.399 208.748 382.669 209.222 383.02 209.547C383.376 209.872 383.803 210.035 384.303 210.035ZM393.152 211.141C392.394 211.141 391.749 210.935 391.216 210.522C390.683 210.107 390.276 209.505 389.994 208.717C389.713 207.926 389.572 206.971 389.572 205.851C389.572 204.739 389.713 203.788 389.994 203.001C390.279 202.21 390.688 201.606 391.221 201.191C391.757 200.772 392.401 200.562 393.152 200.562C393.902 200.562 394.544 200.772 395.077 201.191C395.614 201.606 396.022 202.21 396.304 203.001C396.589 203.788 396.731 204.739 396.731 205.851C396.731 206.971 396.591 207.926 396.309 208.717C396.027 209.505 395.62 210.107 395.087 210.522C394.554 210.935 393.909 211.141 393.152 211.141ZM393.152 210.035C393.902 210.035 394.486 209.673 394.901 208.949C395.317 208.225 395.525 207.192 395.525 205.851C395.525 204.96 395.429 204.201 395.238 203.574C395.05 202.947 394.779 202.469 394.424 202.141C394.072 201.812 393.648 201.648 393.152 201.648C392.407 201.648 391.826 202.015 391.407 202.749C390.988 203.48 390.778 204.514 390.778 205.851C390.778 206.743 390.872 207.501 391.06 208.124C391.248 208.748 391.518 209.222 391.869 209.547C392.225 209.872 392.652 210.035 393.152 210.035ZM402.001 211.141C401.243 211.141 400.598 210.935 400.065 210.522C399.532 210.107 399.125 209.505 398.843 208.717C398.562 207.926 398.421 206.971 398.421 205.851C398.421 204.739 398.562 203.788 398.843 203.001C399.128 202.21 399.537 201.606 400.07 201.191C400.606 200.772 401.25 200.562 402.001 200.562C402.751 200.562 403.393 200.772 403.926 201.191C404.463 201.606 404.871 202.21 405.153 203.001C405.438 203.788 405.58 204.739 405.58 205.851C405.58 206.971 405.44 207.926 405.158 208.717C404.876 209.505 404.469 210.107 403.936 210.522C403.403 210.935 402.758 211.141 402.001 211.141ZM402.001 210.035C402.751 210.035 403.335 209.673 403.75 208.949C404.166 208.225 404.374 207.192 404.374 205.851C404.374 204.96 404.278 204.201 404.087 203.574C403.899 202.947 403.628 202.469 403.273 202.141C402.921 201.812 402.497 201.648 402.001 201.648C401.256 201.648 400.675 202.015 400.256 202.749C399.837 203.48 399.627 204.514 399.627 205.851C399.627 206.743 399.721 207.501 399.909 208.124C400.097 208.748 400.367 209.222 400.718 209.547C401.074 209.872 401.501 210.035 402.001 210.035ZM410.85 211.141C410.092 211.141 409.447 210.935 408.914 210.522C408.381 210.107 407.974 209.505 407.692 208.717C407.411 207.926 407.27 206.971 407.27 205.851C407.27 204.739 407.411 203.788 407.692 203.001C407.977 202.21 408.386 201.606 408.919 201.191C409.455 200.772 410.099 200.562 410.85 200.562C411.6 200.562 412.242 200.772 412.775 201.191C413.312 201.606 413.72 202.21 414.002 203.001C414.287 203.788 414.429 204.739 414.429 205.851C414.429 206.971 414.289 207.926 414.007 208.717C413.725 209.505 413.318 210.107 412.785 210.522C412.252 210.935 411.607 211.141 410.85 211.141ZM410.85 210.035C411.6 210.035 412.184 209.673 412.599 208.949C413.015 208.225 413.223 207.192 413.223 205.851C413.223 204.96 413.127 204.201 412.936 203.574C412.748 202.947 412.477 202.469 412.122 202.141C411.77 201.812 411.346 201.648 410.85 201.648C410.105 201.648 409.524 202.015 409.105 202.749C408.686 203.48 408.476 204.514 408.476 205.851C408.476 206.743 408.57 207.501 408.758 208.124C408.946 208.748 409.216 209.222 409.567 209.547C409.923 209.872 410.35 210.035 410.85 210.035ZM416.34 211V210.095L419.739 206.374C420.138 205.939 420.466 205.56 420.724 205.238C420.982 204.913 421.173 204.608 421.297 204.323C421.425 204.035 421.488 203.733 421.488 203.418C421.488 203.056 421.401 202.743 421.227 202.478C421.056 202.213 420.821 202.009 420.523 201.864C420.225 201.72 419.89 201.648 419.518 201.648C419.122 201.648 418.777 201.73 418.482 201.895C418.19 202.055 417.964 202.282 417.803 202.573C417.646 202.865 417.567 203.207 417.567 203.599H416.38C416.38 202.996 416.519 202.466 416.797 202.01C417.076 201.554 417.454 201.199 417.934 200.944C418.416 200.69 418.958 200.562 419.558 200.562C420.161 200.562 420.696 200.69 421.162 200.944C421.628 201.199 421.993 201.543 422.258 201.975C422.523 202.407 422.655 202.888 422.655 203.418C422.655 203.797 422.586 204.167 422.449 204.529C422.315 204.888 422.08 205.288 421.745 205.731C421.413 206.17 420.952 206.706 420.362 207.34L418.049 209.813V209.894H422.836V211H416.34Z" fill="#FFD86A"/>
</g>
<path d="M601.534 157.456C601.534 157.622 601.066 157.758 600.129 157.864C599.208 157.955 598.279 158 597.343 158C596.422 158 595.833 157.962 595.576 157.887C595.334 157.796 595.214 157.653 595.214 157.456V147.715H592.065C591.899 147.715 591.755 147.504 591.634 147.081C591.513 146.658 591.453 146.031 591.453 145.201C591.453 144.355 591.544 143.6 591.725 142.935C591.906 142.256 592.148 141.916 592.45 141.916H604.705C604.932 141.916 605.083 142.128 605.158 142.55C605.249 142.973 605.294 143.585 605.294 144.385C605.294 145.186 605.211 145.941 605.045 146.651C604.879 147.36 604.652 147.715 604.366 147.715H601.534V157.456ZM611.578 158.181C611.064 158.181 610.588 158.128 610.15 158.023C609.712 157.917 609.252 157.698 608.769 157.366C608.3 157.018 607.9 156.565 607.568 156.006C606.813 154.738 606.435 152.827 606.435 150.275C606.435 148.871 606.624 147.632 607.002 146.56C607.379 145.488 607.855 144.657 608.429 144.068C609.003 143.464 609.69 142.973 610.49 142.596C611.291 142.218 612.038 141.976 612.733 141.871C613.428 141.75 614.168 141.69 614.953 141.69C616.765 141.69 618.041 141.848 618.781 142.165C619.521 142.467 619.891 143.056 619.891 143.932C619.891 144.627 619.763 145.382 619.506 146.198C619.25 146.998 618.872 147.398 618.374 147.398C618.253 147.398 617.739 147.285 616.833 147.058C615.927 146.817 615.247 146.696 614.794 146.696C613.496 146.696 612.846 147.791 612.846 149.981C612.846 151.083 612.997 151.906 613.299 152.45C613.601 152.978 613.979 153.273 614.432 153.333V151.295C614.432 150.917 614.817 150.57 615.587 150.253C616.357 149.935 617.097 149.777 617.807 149.777C618.517 149.777 619.031 149.822 619.348 149.913C619.68 150.003 619.907 150.132 620.027 150.298C620.239 150.57 620.344 150.811 620.344 151.023V157.298C620.344 157.494 619.944 157.653 619.144 157.773C618.359 157.894 617.535 157.955 616.675 157.955C615.829 157.955 615.293 157.917 615.066 157.841C614.84 157.751 614.711 157.517 614.681 157.139L614.523 155.803H614.341C614.236 156.452 613.964 157.011 613.526 157.479C613.103 157.947 612.454 158.181 611.578 158.181ZM633.412 158H623.807C623.067 158 622.568 157.947 622.311 157.841C622.055 157.736 621.926 157.57 621.926 157.343V143.003C621.926 142.611 622.1 142.331 622.447 142.165C622.81 141.999 623.452 141.916 624.373 141.916H633.48C633.797 141.916 633.955 142.445 633.955 143.502C633.955 144.544 633.887 145.344 633.751 145.903C633.615 146.447 633.434 146.719 633.208 146.719C632.226 146.719 630.572 146.62 628.247 146.424V147.942C630.482 147.851 631.939 147.806 632.619 147.806C633.026 147.806 633.23 148.282 633.23 149.233C633.23 150.185 633.147 150.909 632.981 151.408C632.83 151.891 632.619 152.133 632.347 152.133L628.247 152.042V153.492C630.874 153.296 632.687 153.197 633.683 153.197C634.001 153.197 634.159 153.726 634.159 154.783C634.159 155.84 634.091 156.641 633.955 157.184C633.819 157.728 633.638 158 633.412 158ZM655.475 151.68C655.475 153.854 654.848 155.485 653.595 156.573C652.357 157.645 650.552 158.181 648.181 158.181C645.825 158.181 644.013 157.645 642.744 156.573C641.475 155.485 640.841 153.854 640.841 151.68V143.366C640.841 142.988 641.264 142.649 642.11 142.346C642.97 142.044 643.967 141.893 645.1 141.893C646.006 141.893 646.595 142.067 646.867 142.414C647.063 142.686 647.161 142.92 647.161 143.117V149.867C647.161 151.574 647.222 152.707 647.343 153.265C647.478 153.809 647.758 154.081 648.181 154.081C648.604 154.081 648.868 153.817 648.974 153.288C649.094 152.744 649.155 151.597 649.155 149.845V143.366C649.155 142.988 649.578 142.649 650.423 142.346C651.284 142.044 652.273 141.893 653.391 141.893C654.342 141.893 654.947 142.067 655.203 142.414C655.385 142.686 655.475 142.92 655.475 143.117V151.68ZM663.598 157.343C663.598 157.539 663.13 157.698 662.194 157.819C661.273 157.94 660.351 158 659.43 158C658.509 158 657.92 157.947 657.663 157.841C657.406 157.736 657.278 157.57 657.278 157.343V143.434C657.278 143.056 657.708 142.709 658.569 142.392C659.445 142.075 660.434 141.916 661.537 141.916C661.93 141.916 662.224 141.931 662.42 141.961C662.934 142.037 663.296 142.362 663.508 142.935L665.682 148.78H665.773V143.434C665.773 143.056 666.203 142.709 667.064 142.392C667.925 142.075 668.907 141.916 670.009 141.916C670.961 141.916 671.565 142.097 671.822 142.46C672.003 142.716 672.093 142.951 672.093 143.162V157.343C672.093 157.539 671.625 157.698 670.689 157.819C669.768 157.94 668.748 158 667.631 158C666.528 158 665.924 157.857 665.818 157.57L663.712 151.997H663.598V157.343ZM675.817 158C675.062 158 674.556 157.962 674.299 157.887C674.043 157.796 673.914 157.653 673.914 157.456V143.366C673.914 143.034 674.352 142.709 675.228 142.392C676.104 142.06 677.086 141.893 678.173 141.893C679.14 141.893 679.774 142.097 680.076 142.505C680.182 142.656 680.234 142.807 680.234 142.958V152.994C682.077 152.873 683.466 152.812 684.403 152.812C684.72 152.812 684.878 153.318 684.878 154.33C684.878 155.327 684.81 156.188 684.675 156.913C684.539 157.638 684.357 158 684.131 158H675.817ZM693.893 158.204C692.64 158.204 691.56 158.091 690.654 157.864C689.763 157.622 688.94 157.2 688.185 156.595C686.659 155.402 685.897 153.114 685.897 149.732C685.897 148.312 686.1 147.074 686.508 146.016C686.931 144.959 687.512 144.121 688.253 143.502C689.702 142.294 691.583 141.69 693.893 141.69C695.086 141.69 696.121 141.795 696.997 142.007C697.888 142.218 698.726 142.603 699.511 143.162C701.097 144.31 701.89 146.5 701.89 149.732C701.89 152.631 701.173 154.768 699.738 156.142C698.303 157.517 696.355 158.204 693.893 158.204ZM693.146 154.33C693.327 154.542 693.576 154.647 693.893 154.647C694.21 154.647 694.46 154.542 694.641 154.33C694.822 154.104 694.973 153.635 695.094 152.926C695.215 152.201 695.275 151.196 695.275 149.913C695.275 148.629 695.215 147.64 695.094 146.945C694.973 146.25 694.822 145.797 694.641 145.586C694.46 145.374 694.21 145.269 693.893 145.269C693.576 145.269 693.327 145.374 693.146 145.586C692.964 145.797 692.813 146.25 692.693 146.945C692.572 147.64 692.511 148.629 692.511 149.913C692.511 151.196 692.572 152.201 692.693 152.926C692.813 153.635 692.964 154.104 693.146 154.33ZM714.709 157.841C714.104 157.977 713.485 158.068 712.851 158.113C712.232 158.174 711.62 158.204 711.016 158.204C710.427 158.204 709.966 158.189 709.634 158.159C709.317 158.128 708.894 158.053 708.366 157.932C707.837 157.811 707.354 157.645 706.916 157.434C706.478 157.222 706.01 156.913 705.511 156.505C705.028 156.097 704.62 155.614 704.288 155.055C703.518 153.756 703.133 152.08 703.133 150.026C703.133 148.652 703.344 147.436 703.767 146.379C704.205 145.322 704.726 144.506 705.33 143.932C705.949 143.358 706.651 142.898 707.437 142.55C708.705 141.976 709.981 141.69 711.265 141.69C713.108 141.69 714.429 141.841 715.23 142.143C715.592 142.279 715.917 142.49 716.204 142.777C716.491 143.064 716.634 143.479 716.634 144.023C716.634 144.567 716.498 145.254 716.226 146.084C715.97 146.915 715.592 147.33 715.094 147.33C714.943 147.33 714.384 147.209 713.417 146.968C712.451 146.726 711.794 146.605 711.446 146.605C710.918 146.605 710.465 146.9 710.087 147.489C709.725 148.078 709.544 148.916 709.544 150.003C709.544 151.091 709.702 151.936 710.019 152.541C710.351 153.145 710.782 153.447 711.31 153.447C711.688 153.447 712.368 153.296 713.349 152.994C714.346 152.676 714.927 152.518 715.094 152.518C715.562 152.518 715.924 152.948 716.181 153.809C716.453 154.67 716.589 155.365 716.589 155.893C716.589 156.422 716.423 156.845 716.09 157.162C715.773 157.464 715.313 157.69 714.709 157.841ZM724.546 157.298C724.546 157.494 724.078 157.653 723.141 157.773C722.22 157.894 721.299 157.955 720.378 157.955C719.456 157.955 718.867 157.902 718.611 157.796C718.354 157.69 718.225 157.524 718.225 157.298V143.411C718.225 143.019 718.648 142.671 719.494 142.369C720.355 142.067 721.344 141.916 722.462 141.916C723.383 141.916 723.979 142.097 724.251 142.46C724.448 142.716 724.546 142.951 724.546 143.162V146.9H724.727C724.727 146.824 724.954 146.198 725.407 145.02C726.267 142.8 726.894 141.69 727.287 141.69C728.027 141.69 729.069 141.909 730.413 142.346C731.062 142.558 731.621 142.868 732.089 143.275C732.557 143.668 732.792 144.106 732.792 144.589C732.792 144.891 732.482 145.48 731.863 146.356C731.259 147.217 730.337 148.372 729.099 149.822C729.386 150.124 729.748 150.509 730.186 150.977C730.624 151.446 731.206 152.148 731.931 153.084C732.671 154.005 733.041 154.662 733.041 155.055C733.041 155.448 732.686 155.908 731.976 156.437C731.266 156.95 730.511 157.373 729.711 157.706C728.91 158.023 728.314 158.181 727.921 158.181C727.664 158.181 727.309 157.796 726.856 157.026C726.418 156.241 725.882 155.07 725.248 153.515L724.546 154.353V157.298Z" fill="#FFD86A"/>
<g clip-path="url(#clip3_2001_51)">
<path d="M596.686 178.703V189H595.439V180.01H595.379L592.865 181.679V180.412L595.439 178.703H596.686ZM603.006 189.141C602.248 189.141 601.603 188.935 601.07 188.522C600.537 188.107 600.13 187.505 599.848 186.717C599.567 185.926 599.426 184.971 599.426 183.851C599.426 182.739 599.567 181.788 599.848 181.001C600.133 180.21 600.542 179.606 601.075 179.191C601.612 178.772 602.255 178.562 603.006 178.562C603.757 178.562 604.399 178.772 604.932 179.191C605.468 179.606 605.877 180.21 606.158 181.001C606.443 181.788 606.586 182.739 606.586 183.851C606.586 184.971 606.445 185.926 606.163 186.717C605.882 187.505 605.475 188.107 604.942 188.522C604.409 188.935 603.763 189.141 603.006 189.141ZM603.006 188.035C603.757 188.035 604.34 187.673 604.756 186.949C605.171 186.225 605.379 185.192 605.379 183.851C605.379 182.96 605.284 182.201 605.092 181.574C604.905 180.947 604.633 180.469 604.278 180.141C603.926 179.812 603.502 179.648 603.006 179.648C602.262 179.648 601.68 180.015 601.261 180.749C600.842 181.48 600.633 182.514 600.633 183.851C600.633 184.743 600.727 185.501 600.914 186.124C601.102 186.748 601.372 187.222 601.724 187.547C602.079 187.872 602.506 188.035 603.006 188.035ZM611.855 189.141C611.097 189.141 610.452 188.935 609.919 188.522C609.386 188.107 608.979 187.505 608.697 186.717C608.416 185.926 608.275 184.971 608.275 183.851C608.275 182.739 608.416 181.788 608.697 181.001C608.982 180.21 609.391 179.606 609.924 179.191C610.461 178.772 611.104 178.562 611.855 178.562C612.606 178.562 613.248 178.772 613.781 179.191C614.317 179.606 614.726 180.21 615.007 181.001C615.292 181.788 615.435 182.739 615.435 183.851C615.435 184.971 615.294 185.926 615.012 186.717C614.731 187.505 614.324 188.107 613.791 188.522C613.258 188.935 612.612 189.141 611.855 189.141ZM611.855 188.035C612.606 188.035 613.189 187.673 613.605 186.949C614.02 186.225 614.228 185.192 614.228 183.851C614.228 182.96 614.133 182.201 613.941 181.574C613.754 180.947 613.482 180.469 613.127 180.141C612.775 179.812 612.351 179.648 611.855 179.648C611.111 179.648 610.529 180.015 610.11 180.749C609.691 181.48 609.482 182.514 609.482 183.851C609.482 184.743 609.576 185.501 609.763 186.124C609.951 186.748 610.221 187.222 610.573 187.547C610.928 187.872 611.355 188.035 611.855 188.035ZM617.871 189.08C617.623 189.08 617.41 188.992 617.232 188.814C617.055 188.636 616.966 188.423 616.966 188.175C616.966 187.927 617.055 187.715 617.232 187.537C617.41 187.359 617.623 187.27 617.871 187.27C618.119 187.27 618.332 187.359 618.509 187.537C618.687 187.715 618.776 187.927 618.776 188.175C618.776 188.34 618.734 188.491 618.65 188.628C618.57 188.765 618.461 188.876 618.323 188.96C618.189 189.04 618.038 189.08 617.871 189.08ZM623.884 189.141C623.126 189.141 622.481 188.935 621.948 188.522C621.415 188.107 621.008 187.505 620.727 186.717C620.445 185.926 620.304 184.971 620.304 183.851C620.304 182.739 620.445 181.788 620.727 181.001C621.011 180.21 621.42 179.606 621.953 179.191C622.49 178.772 623.133 178.562 623.884 178.562C624.635 178.562 625.277 178.772 625.81 179.191C626.346 179.606 626.755 180.21 627.036 181.001C627.321 181.788 627.464 182.739 627.464 183.851C627.464 184.971 627.323 185.926 627.041 186.717C626.76 187.505 626.353 188.107 625.82 188.522C625.287 188.935 624.642 189.141 623.884 189.141ZM623.884 188.035C624.635 188.035 625.218 187.673 625.634 186.949C626.049 186.225 626.257 185.192 626.257 183.851C626.257 182.96 626.162 182.201 625.971 181.574C625.783 180.947 625.511 180.469 625.156 180.141C624.804 179.812 624.38 179.648 623.884 179.648C623.14 179.648 622.558 180.015 622.139 180.749C621.72 181.48 621.511 182.514 621.511 183.851C621.511 184.743 621.605 185.501 621.792 186.124C621.98 186.748 622.25 187.222 622.602 187.547C622.957 187.872 623.385 188.035 623.884 188.035ZM632.733 189.141C631.975 189.141 631.33 188.935 630.797 188.522C630.264 188.107 629.857 187.505 629.576 186.717C629.294 185.926 629.153 184.971 629.153 183.851C629.153 182.739 629.294 181.788 629.576 181.001C629.86 180.21 630.269 179.606 630.802 179.191C631.339 178.772 631.982 178.562 632.733 178.562C633.484 178.562 634.126 178.772 634.659 179.191C635.195 179.606 635.604 180.21 635.885 181.001C636.17 181.788 636.313 182.739 636.313 183.851C636.313 184.971 636.172 185.926 635.89 186.717C635.609 187.505 635.202 188.107 634.669 188.522C634.136 188.935 633.491 189.141 632.733 189.141ZM632.733 188.035C633.484 188.035 634.067 187.673 634.483 186.949C634.898 186.225 635.106 185.192 635.106 183.851C635.106 182.96 635.011 182.201 634.82 181.574C634.632 180.947 634.36 180.469 634.005 180.141C633.653 179.812 633.229 179.648 632.733 179.648C631.989 179.648 631.407 180.015 630.988 180.749C630.569 181.48 630.36 182.514 630.36 183.851C630.36 184.743 630.454 185.501 630.641 186.124C630.829 186.748 631.099 187.222 631.451 187.547C631.806 187.872 632.234 188.035 632.733 188.035ZM643.472 187.069V186.526C643.472 186.151 643.55 185.807 643.704 185.496C643.861 185.181 644.089 184.929 644.388 184.741C644.689 184.55 645.055 184.455 645.484 184.455C645.919 184.455 646.285 184.55 646.58 184.741C646.875 184.929 647.098 185.181 647.248 185.496C647.399 185.807 647.475 186.151 647.475 186.526V187.069C647.475 187.445 647.398 187.79 647.243 188.105C647.093 188.417 646.868 188.668 646.57 188.859C646.275 189.047 645.913 189.141 645.484 189.141C645.048 189.141 644.681 189.047 644.383 188.859C644.084 188.668 643.858 188.417 643.704 188.105C643.55 187.79 643.472 187.445 643.472 187.069ZM644.498 186.526V187.069C644.498 187.381 644.572 187.661 644.719 187.909C644.867 188.154 645.122 188.276 645.484 188.276C645.836 188.276 646.084 188.154 646.228 187.909C646.375 187.661 646.449 187.381 646.449 187.069V186.526C646.449 186.215 646.379 185.936 646.238 185.692C646.097 185.444 645.846 185.32 645.484 185.32C645.132 185.32 644.879 185.444 644.724 185.692C644.574 185.936 644.498 186.215 644.498 186.526ZM638.344 181.177V180.634C638.344 180.258 638.421 179.915 638.575 179.603C638.733 179.288 638.961 179.037 639.259 178.849C639.561 178.658 639.926 178.562 640.355 178.562C640.791 178.562 641.156 178.658 641.451 178.849C641.746 179.037 641.969 179.288 642.12 179.603C642.271 179.915 642.346 180.258 642.346 180.634V181.177C642.346 181.552 642.269 181.897 642.115 182.212C641.964 182.524 641.74 182.776 641.441 182.967C641.146 183.154 640.784 183.248 640.355 183.248C639.919 183.248 639.552 183.154 639.254 182.967C638.956 182.776 638.73 182.524 638.575 182.212C638.421 181.897 638.344 181.552 638.344 181.177ZM639.37 180.634V181.177C639.37 181.488 639.443 181.768 639.591 182.016C639.738 182.261 639.993 182.383 640.355 182.383C640.707 182.383 640.955 182.261 641.099 182.016C641.247 181.768 641.321 181.488 641.321 181.177V180.634C641.321 180.322 641.25 180.044 641.109 179.799C640.969 179.551 640.717 179.427 640.355 179.427C640.003 179.427 639.75 179.551 639.596 179.799C639.445 180.044 639.37 180.322 639.37 180.634ZM638.726 189L645.805 178.703H646.952L639.873 189H638.726Z" fill="#FFD86A"/>
<path d="M596.686 200.703V211H595.439V202.01H595.379L592.865 203.679V202.412L595.439 200.703H596.686ZM603.006 211.141C602.248 211.141 601.603 210.935 601.07 210.522C600.537 210.107 600.13 209.505 599.848 208.717C599.567 207.926 599.426 206.971 599.426 205.851C599.426 204.739 599.567 203.788 599.848 203.001C600.133 202.21 600.542 201.606 601.075 201.191C601.612 200.772 602.255 200.562 603.006 200.562C603.757 200.562 604.399 200.772 604.932 201.191C605.468 201.606 605.877 202.21 606.158 203.001C606.443 203.788 606.586 204.739 606.586 205.851C606.586 206.971 606.445 207.926 606.163 208.717C605.882 209.505 605.475 210.107 604.942 210.522C604.409 210.935 603.763 211.141 603.006 211.141ZM603.006 210.035C603.757 210.035 604.34 209.673 604.756 208.949C605.171 208.225 605.379 207.192 605.379 205.851C605.379 204.96 605.284 204.201 605.092 203.574C604.905 202.947 604.633 202.469 604.278 202.141C603.926 201.812 603.502 201.648 603.006 201.648C602.262 201.648 601.68 202.015 601.261 202.749C600.842 203.48 600.633 204.514 600.633 205.851C600.633 206.743 600.727 207.501 600.914 208.124C601.102 208.748 601.372 209.222 601.724 209.547C602.079 209.872 602.506 210.035 603.006 210.035ZM611.855 211.141C611.097 211.141 610.452 210.935 609.919 210.522C609.386 210.107 608.979 209.505 608.697 208.717C608.416 207.926 608.275 206.971 608.275 205.851C608.275 204.739 608.416 203.788 608.697 203.001C608.982 202.21 609.391 201.606 609.924 201.191C610.461 200.772 611.104 200.562 611.855 200.562C612.606 200.562 613.248 200.772 613.781 201.191C614.317 201.606 614.726 202.21 615.007 203.001C615.292 203.788 615.435 204.739 615.435 205.851C615.435 206.971 615.294 207.926 615.012 208.717C614.731 209.505 614.324 210.107 613.791 210.522C613.258 210.935 612.612 211.141 611.855 211.141ZM611.855 210.035C612.606 210.035 613.189 209.673 613.605 208.949C614.02 208.225 614.228 207.192 614.228 205.851C614.228 204.96 614.133 204.201 613.941 203.574C613.754 202.947 613.482 202.469 613.127 202.141C612.775 201.812 612.351 201.648 611.855 201.648C611.111 201.648 610.529 202.015 610.11 202.749C609.691 203.48 609.482 204.514 609.482 205.851C609.482 206.743 609.576 207.501 609.763 208.124C609.951 208.748 610.221 209.222 610.573 209.547C610.928 209.872 611.355 210.035 611.855 210.035ZM617.871 211.08C617.623 211.08 617.41 210.992 617.232 210.814C617.055 210.636 616.966 210.423 616.966 210.175C616.966 209.927 617.055 209.715 617.232 209.537C617.41 209.359 617.623 209.27 617.871 209.27C618.119 209.27 618.332 209.359 618.509 209.537C618.687 209.715 618.776 209.927 618.776 210.175C618.776 210.34 618.734 210.491 618.65 210.628C618.57 210.765 618.461 210.876 618.323 210.96C618.189 211.04 618.038 211.08 617.871 211.08ZM623.884 211.141C623.126 211.141 622.481 210.935 621.948 210.522C621.415 210.107 621.008 209.505 620.727 208.717C620.445 207.926 620.304 206.971 620.304 205.851C620.304 204.739 620.445 203.788 620.727 203.001C621.011 202.21 621.42 201.606 621.953 201.191C622.49 200.772 623.133 200.562 623.884 200.562C624.635 200.562 625.277 200.772 625.81 201.191C626.346 201.606 626.755 202.21 627.036 203.001C627.321 203.788 627.464 204.739 627.464 205.851C627.464 206.971 627.323 207.926 627.041 208.717C626.76 209.505 626.353 210.107 625.82 210.522C625.287 210.935 624.642 211.141 623.884 211.141ZM623.884 210.035C624.635 210.035 625.218 209.673 625.634 208.949C626.049 208.225 626.257 207.192 626.257 205.851C626.257 204.96 626.162 204.201 625.971 203.574C625.783 202.947 625.511 202.469 625.156 202.141C624.804 201.812 624.38 201.648 623.884 201.648C623.14 201.648 622.558 202.015 622.139 202.749C621.72 203.48 621.511 204.514 621.511 205.851C621.511 206.743 621.605 207.501 621.792 208.124C621.98 208.748 622.25 209.222 622.602 209.547C622.957 209.872 623.385 210.035 623.884 210.035ZM632.733 211.141C631.975 211.141 631.33 210.935 630.797 210.522C630.264 210.107 629.857 209.505 629.576 208.717C629.294 207.926 629.153 206.971 629.153 205.851C629.153 204.739 629.294 203.788 629.576 203.001C629.86 202.21 630.269 201.606 630.802 201.191C631.339 200.772 631.982 200.562 632.733 200.562C633.484 200.562 634.126 200.772 634.659 201.191C635.195 201.606 635.604 202.21 635.885 203.001C636.17 203.788 636.313 204.739 636.313 205.851C636.313 206.971 636.172 207.926 635.89 208.717C635.609 209.505 635.202 210.107 634.669 210.522C634.136 210.935 633.491 211.141 632.733 211.141ZM632.733 210.035C633.484 210.035 634.067 209.673 634.483 208.949C634.898 208.225 635.106 207.192 635.106 205.851C635.106 204.96 635.011 204.201 634.82 203.574C634.632 202.947 634.36 202.469 634.005 202.141C633.653 201.812 633.229 201.648 632.733 201.648C631.989 201.648 631.407 202.015 630.988 202.749C630.569 203.48 630.36 204.514 630.36 205.851C630.36 206.743 630.454 207.501 630.641 208.124C630.829 208.748 631.099 209.222 631.451 209.547C631.806 209.872 632.234 210.035 632.733 210.035ZM643.472 209.069V208.526C643.472 208.151 643.55 207.807 643.704 207.496C643.861 207.181 644.089 206.929 644.388 206.741C644.689 206.55 645.055 206.455 645.484 206.455C645.919 206.455 646.285 206.55 646.58 206.741C646.875 206.929 647.098 207.181 647.248 207.496C647.399 207.807 647.475 208.151 647.475 208.526V209.069C647.475 209.445 647.398 209.79 647.243 210.105C647.093 210.417 646.868 210.668 646.57 210.859C646.275 211.047 645.913 211.141 645.484 211.141C645.048 211.141 644.681 211.047 644.383 210.859C644.084 210.668 643.858 210.417 643.704 210.105C643.55 209.79 643.472 209.445 643.472 209.069ZM644.498 208.526V209.069C644.498 209.381 644.572 209.661 644.719 209.909C644.867 210.154 645.122 210.276 645.484 210.276C645.836 210.276 646.084 210.154 646.228 209.909C646.375 209.661 646.449 209.381 646.449 209.069V208.526C646.449 208.215 646.379 207.936 646.238 207.692C646.097 207.444 645.846 207.32 645.484 207.32C645.132 207.32 644.879 207.444 644.724 207.692C644.574 207.936 644.498 208.215 644.498 208.526ZM638.344 203.177V202.634C638.344 202.258 638.421 201.915 638.575 201.603C638.733 201.288 638.961 201.037 639.259 200.849C639.561 200.658 639.926 200.562 640.355 200.562C640.791 200.562 641.156 200.658 641.451 200.849C641.746 201.037 641.969 201.288 642.12 201.603C642.271 201.915 642.346 202.258 642.346 202.634V203.177C642.346 203.552 642.269 203.897 642.115 204.212C641.964 204.524 641.74 204.776 641.441 204.967C641.146 205.154 640.784 205.248 640.355 205.248C639.919 205.248 639.552 205.154 639.254 204.967C638.956 204.776 638.73 204.524 638.575 204.212C638.421 203.897 638.344 203.552 638.344 203.177ZM639.37 202.634V203.177C639.37 203.488 639.443 203.768 639.591 204.016C639.738 204.261 639.993 204.383 640.355 204.383C640.707 204.383 640.955 204.261 641.099 204.016C641.247 203.768 641.321 203.488 641.321 203.177V202.634C641.321 202.322 641.25 202.044 641.109 201.799C640.969 201.551 640.717 201.427 640.355 201.427C640.003 201.427 639.75 201.551 639.596 201.799C639.445 202.044 639.37 202.322 639.37 202.634ZM638.726 211L645.805 200.703H646.952L639.873 211H638.726Z" fill="#FFD86A"/>
</g>
</g>
<defs>
<clipPath id="clip0_2001_51">
<rect width="808.623" height="351" fill="white"/>
</clipPath>
<clipPath id="clip1_2001_51">
<rect width="216.623" height="39" fill="white" transform="translate(53.0791 175)"/>
</clipPath>
<clipPath id="clip2_2001_51">
<rect width="216.623" height="39" fill="white" transform="translate(359 175)"/>
</clipPath>
<clipPath id="clip3_2001_51">
<rect width="216.623" height="39" fill="white" transform="translate(592 175)"/>
</clipPath>
</defs>
</svg>
