<svg width="183" height="352" viewBox="0 0 183 352" fill="none" xmlns="http://www.w3.org/2000/svg">
<g style="mix-blend-mode:hard-light">
<path d="M27.54 236.305C22.1383 227.417 22.3616 216.339 28.1551 207.7C28.1937 207.642 28.2324 207.584 28.271 207.525C40.6592 188.816 32.9875 161.92 11.1368 147.452C-10.7138 132.983 -38.4706 136.421 -50.8588 155.131C-50.8974 155.189 -50.9361 155.247 -50.9747 155.306C-56.6657 164.012 -66.7758 168.544 -77.0695 167.04C-93.1208 164.696 -108.79 170.342 -117.265 183.142C-129.653 201.852 -121.982 228.748 -100.131 243.216C-91.9236 248.651 -82.8844 251.554 -74.1402 252.073C-64.5768 252.641 -56.1466 258.223 -51.89 266.805C-47.9986 274.653 -41.7966 281.841 -33.5891 287.276C-11.7384 301.744 16.0183 298.306 28.4065 279.597C36.8836 266.798 35.9646 250.168 27.54 236.305Z" fill="url(#paint0_linear_108_23)"/>
<path d="M22.7269 94.995C16.4356 114.558 0.305161 126.869 -13.3028 122.494C-26.9125 118.118 -32.8442 98.7125 -26.5547 79.1485C-20.2633 59.5856 -4.13295 47.2748 9.47679 51.6509C23.0836 56.0276 29.0153 75.4327 22.7269 94.995Z" fill="url(#paint1_linear_108_23)"/>
<path d="M62.2851 121.187C46.7309 134.617 41.6947 154.273 51.0352 165.093C60.3774 175.915 80.5583 173.8 96.1143 160.371C111.668 146.941 116.705 127.285 107.364 116.465C98.0208 105.645 77.8381 107.759 62.2851 121.187Z" fill="url(#paint2_linear_108_23)"/>
<path d="M91.6644 202.102C71.5262 206.196 57.5101 220.87 60.359 234.878C63.2067 248.887 81.8395 256.924 101.976 252.83C122.114 248.736 136.13 234.062 133.281 220.054C130.436 206.046 111.803 198.009 91.6644 202.102Z" fill="url(#paint3_linear_108_23)"/>
</g>
<defs>
<linearGradient id="paint0_linear_108_23" x1="11.1359" y1="147.451" x2="-66.8601" y2="265.246" gradientUnits="userSpaceOnUse">
<stop stop-color="#FFD86A"/>
<stop offset="1" stop-color="#F0BD2F"/>
</linearGradient>
<linearGradient id="paint1_linear_108_23" x1="18.2401" y1="56.6338" x2="-22.0682" y2="117.51" gradientUnits="userSpaceOnUse">
<stop stop-color="#FFD86A"/>
<stop offset="1" stop-color="#F0BD2F"/>
</linearGradient>
<linearGradient id="paint2_linear_108_23" x1="99.3536" y1="110.341" x2="59.0454" y2="171.218" gradientUnits="userSpaceOnUse">
<stop stop-color="#FFD86A"/>
<stop offset="1" stop-color="#F0BD2F"/>
</linearGradient>
<linearGradient id="paint3_linear_108_23" x1="114.516" y1="200.741" x2="79.1248" y2="254.191" gradientUnits="userSpaceOnUse">
<stop stop-color="#FFD86A"/>
<stop offset="1" stop-color="#F0BD2F"/>
</linearGradient>
</defs>
</svg>
