<svg width="56" height="40" viewBox="0 0 56 40" fill="none" xmlns="http://www.w3.org/2000/svg">
<path d="M10.4231 19.3986C9.96374 19.4515 9.96374 19.924 10.4231 19.9769C16.8478 20.7168 22.619 20.9182 27.7377 20.9182C32.8564 20.9182 38.627 20.7172 45.0523 19.9769C45.5117 19.924 45.5117 19.4515 45.0523 19.3986C38.6276 18.6587 32.8564 18.4574 27.7377 18.4574C22.619 18.4574 16.8484 18.6583 10.4231 19.3986ZM12.9553 23.9119C12.511 23.9721 12.511 24.4274 12.9554 24.4877C18.4167 25.2288 23.2442 25.4298 27.7377 25.4298C32.2312 25.4298 37.0587 25.2288 42.5206 24.4873C42.965 24.427 42.965 23.9717 42.5206 23.9114C37.0592 23.1703 32.2312 22.9689 27.7377 22.9689C23.2442 22.9689 18.4173 23.1703 12.9553 23.9119ZM12.9553 14.8887C12.511 14.949 12.511 15.4043 12.9553 15.4645C18.4167 16.2057 23.2442 16.4066 27.7377 16.4066C32.2312 16.4066 37.0587 16.2057 42.5206 15.4641C42.965 15.4038 42.965 14.9486 42.5206 14.8883C37.0592 14.1472 32.2312 13.9458 27.7377 13.9458C23.2442 13.9458 18.4173 14.1472 12.9553 14.8887Z" fill="#F0BD2F"/>
<path d="M42.5216 14.8867C37.0602 14.1456 32.2322 13.9442 27.7387 13.9442C23.2452 13.9442 18.4177 14.1452 12.9558 14.8867C12.7333 14.9167 12.6223 15.0455 12.6229 15.1746L42.8545 15.1746C42.8545 15.0459 42.7435 14.9171 42.5216 14.8867ZM45.0533 19.3971C38.6286 18.6572 32.8574 18.4558 27.7387 18.4558C22.62 18.4558 16.8494 18.6568 10.4241 19.3971C10.1947 19.4237 10.0792 19.555 10.0797 19.6866L45.3977 19.6866C45.3971 19.555 45.2827 19.4237 45.0533 19.3971ZM42.5216 23.9099C37.0602 23.1688 32.2322 22.9674 27.7387 22.9674C23.2452 22.9674 18.4177 23.1683 12.9558 23.9099C12.7333 23.9398 12.6223 24.0686 12.6229 24.1978L42.8545 24.1978C42.8545 24.069 42.7435 23.9402 42.5216 23.9099Z" fill="#F0BD2F"/>
</svg>
