<svg width="55" height="22" viewBox="0 0 55 22" fill="none" xmlns="http://www.w3.org/2000/svg">
<path d="M1.53788 8.10278V1.92677H4.07887C4.46707 1.92677 4.80822 2.00617 5.10232 2.16498C5.4023 2.31791 5.63463 2.53555 5.79933 2.81788C5.9699 3.10021 6.05519 3.43548 6.05519 3.82369V3.94721C6.05519 4.32953 5.96696 4.6648 5.79051 4.95301C5.61993 5.23535 5.38465 5.45592 5.08467 5.61473C4.79058 5.76766 4.45531 5.84413 4.07887 5.84413H2.7025V8.10278H1.53788ZM2.7025 4.78538H3.96417C4.24062 4.78538 4.46413 4.70891 4.63471 4.55599C4.80528 4.40305 4.89057 4.19425 4.89057 3.92956V3.84133C4.89057 3.57665 4.80528 3.36784 4.63471 3.21491C4.46413 3.06198 4.24062 2.98551 3.96417 2.98551H2.7025V4.78538ZM9.26245 8.2263C8.48603 8.2263 7.86843 8.01455 7.40964 7.59106C6.95085 7.16168 6.72146 6.54996 6.72146 5.7559V4.27365C6.72146 3.47959 6.95085 2.87081 7.40964 2.44732C7.86843 2.01794 8.48603 1.80325 9.26245 1.80325C10.0389 1.80325 10.6565 2.01794 11.1153 2.44732C11.574 2.87081 11.8034 3.47959 11.8034 4.27365V5.7559C11.8034 6.54996 11.574 7.16168 11.1153 7.59106C10.6565 8.01455 10.0389 8.2263 9.26245 8.2263ZM9.26245 7.1852C9.69771 7.1852 10.0359 7.05874 10.2771 6.80582C10.5182 6.5529 10.6388 6.21469 10.6388 5.79119V4.23836C10.6388 3.81486 10.5182 3.47665 10.2771 3.22373C10.0359 2.97081 9.69771 2.84435 9.26245 2.84435C8.83307 2.84435 8.49486 2.97081 8.24782 3.22373C8.00666 3.47665 7.88608 3.81486 7.88608 4.23836V5.79119C7.88608 6.21469 8.00666 6.5529 8.24782 6.80582C8.49486 7.05874 8.83307 7.1852 9.26245 7.1852ZM13.2673 8.10278L12.4556 1.92677H13.6114L14.2114 7.29108H14.3702L15.1466 1.92677H17.1582L17.9346 7.29108H18.0935L18.6934 1.92677H19.8492L19.0375 8.10278H17.0259L16.2318 2.61495H16.073L15.279 8.10278H13.2673ZM20.7001 8.10278V1.92677H24.6704V2.98551H21.8647V4.45893H24.4233V5.51768H21.8647V7.04404H24.7233V8.10278H20.7001ZM25.5854 8.10278V1.92677H28.2676C28.6558 1.92677 28.994 1.99441 29.2822 2.12969C29.5704 2.26498 29.7939 2.45614 29.9527 2.70318C30.1115 2.95022 30.1909 3.24138 30.1909 3.57665V3.68252C30.1909 4.05308 30.1027 4.35306 29.9263 4.58245C29.7498 4.81185 29.5322 4.97948 29.2734 5.08536V5.24417C29.5086 5.25593 29.691 5.33828 29.8204 5.49121C29.9498 5.63826 30.0145 5.8353 30.0145 6.08234V8.10278H28.8499V6.24998C28.8499 6.10881 28.8116 5.99411 28.7352 5.90589C28.6646 5.81766 28.544 5.77354 28.3734 5.77354H26.75V8.10278H25.5854ZM26.75 4.7148H28.144C28.4205 4.7148 28.6352 4.64127 28.7881 4.49422C28.9469 4.34129 29.0263 4.14131 29.0263 3.89427V3.80604C29.0263 3.559 28.9499 3.36195 28.7969 3.21491C28.644 3.06198 28.4264 2.98551 28.144 2.98551H26.75V4.7148ZM31.16 8.10278V1.92677H35.1303V2.98551H32.3246V4.45893H34.8833V5.51768H32.3246V7.04404H35.1832V8.10278H31.16ZM35.8689 8.10278V7.07933H36.6806V2.95022H35.8689V1.92677H38.4099C39.2392 1.92677 39.8686 2.13852 40.298 2.56201C40.7332 2.97963 40.9509 3.60311 40.9509 4.43246V5.59708C40.9509 6.42644 40.7332 7.05286 40.298 7.47636C39.8686 7.89398 39.2392 8.10278 38.4099 8.10278H35.8689ZM37.8452 7.04404H38.4275C38.8981 7.04404 39.2422 6.92052 39.4598 6.67348C39.6774 6.42644 39.7862 6.0794 39.7862 5.63238V4.39717C39.7862 3.94427 39.6774 3.59723 39.4598 3.35607C39.2422 3.10903 38.8981 2.98551 38.4275 2.98551H37.8452V7.04404ZM43.9852 8.10278V7.07933H44.7969V2.95022H43.9852V1.92677H47.1615C47.5379 1.92677 47.8644 1.99147 48.1408 2.12087C48.4231 2.24439 48.6408 2.42379 48.7937 2.65907C48.9525 2.88846 49.0319 3.16491 49.0319 3.48842V3.57665C49.0319 3.85898 48.979 4.09131 48.8731 4.27365C48.7672 4.45011 48.6408 4.58834 48.4937 4.68833C48.3526 4.78244 48.2173 4.85008 48.0879 4.89125V5.05007C48.2173 5.08536 48.3584 5.153 48.5114 5.25299C48.6643 5.3471 48.7937 5.48533 48.8996 5.66767C49.0113 5.85001 49.0672 6.08823 49.0672 6.38232V6.47055C49.0672 6.8117 48.9878 7.1058 48.829 7.35284C48.6702 7.594 48.4496 7.77928 48.1673 7.90868C47.8908 8.03808 47.5673 8.10278 47.1968 8.10278H43.9852ZM45.9616 7.04404H47.0556C47.3085 7.04404 47.5114 6.98228 47.6644 6.85876C47.8232 6.73524 47.9026 6.55878 47.9026 6.32938V6.24116C47.9026 6.01176 47.8261 5.8353 47.6732 5.71178C47.5203 5.58826 47.3144 5.5265 47.0556 5.5265H45.9616V7.04404ZM45.9616 4.46776H47.038C47.2791 4.46776 47.4762 4.406 47.6291 4.28248C47.7879 4.15896 47.8673 3.98838 47.8673 3.77075V3.68252C47.8673 3.45901 47.7908 3.28843 47.6379 3.17079C47.485 3.04727 47.285 2.98551 47.038 2.98551H45.9616V4.46776ZM51.4881 8.10278V5.97647L49.3883 1.92677H50.6852L51.991 4.57363H52.1498L53.4556 1.92677H54.7526L52.6528 5.97647V8.10278H51.4881Z" fill="white"/>
<path d="M9.02906 11.3778L10.9993 12.7948L11.7518 15.0873L10.9993 17.3797L9.02906 18.7967H6.59351L4.62325 17.3797L3.87075 15.0873L4.62325 12.7948L6.59351 11.3778H9.02906ZM9.92947 8.63623H5.69311L2.26525 11.1007L0.955566 15.0887L2.26525 19.0767L5.69311 21.5411H9.92947L13.3573 19.0767L14.667 15.0887L13.3573 11.1007L9.92947 8.63623Z" fill="white"/>
<path d="M50.8686 14.228C51.2278 13.6207 51.57 13.0133 51.8951 12.406C52.2201 11.7986 52.5195 11.187 52.7933 10.571H55.0003C54.5127 11.5291 54.008 12.4573 53.4862 13.3555C52.9644 14.2537 52.4126 15.1562 51.8309 16.063V19.4633H49.8292V16.0886C49.2475 15.1819 48.6915 14.2751 48.1611 13.3683C47.6393 12.4616 47.1346 11.5291 46.647 10.571H48.9695C49.2432 11.187 49.5384 11.7986 49.8549 12.406C50.1714 13.0133 50.5093 13.6207 50.8686 14.228Z" fill="white"/>
<path d="M39.8779 19.4633V10.571H45.8318V12.252H41.8797V14.1126H45.3955V15.7935H41.8797V19.4633H39.8779Z" fill="white"/>
<path d="M35.8179 10.571H37.8196V19.4633H35.8179V10.571Z" fill="white"/>
<path d="M28.3591 17.8338C28.4532 17.8424 28.5602 17.8509 28.6799 17.8595C28.8082 17.8595 28.958 17.8595 29.129 17.8595C30.1299 17.8595 30.8699 17.6071 31.3489 17.1024C31.8365 16.5977 32.0803 15.9005 32.0803 15.0109C32.0803 14.0785 31.8493 13.3727 31.3874 12.8937C30.9255 12.4146 30.1941 12.1751 29.1932 12.1751C29.0563 12.1751 28.9152 12.1794 28.7698 12.1879C28.6243 12.1879 28.4875 12.1965 28.3591 12.2136V17.8338ZM34.1462 15.0109C34.1462 15.7808 34.0264 16.4523 33.7869 17.0254C33.5474 17.5986 33.2052 18.0733 32.7604 18.4497C32.3241 18.8261 31.7894 19.1084 31.1564 19.2966C30.5234 19.4848 29.8134 19.5789 29.0264 19.5789C28.6671 19.5789 28.2479 19.5618 27.7689 19.5276C27.2898 19.5019 26.8194 19.442 26.3574 19.3479V10.6866C26.8194 10.6011 27.2984 10.5455 27.7946 10.5198C28.2993 10.4856 28.7313 10.4685 29.0905 10.4685C29.8519 10.4685 30.5405 10.554 31.1564 10.7251C31.7809 10.8962 32.3155 11.1657 32.7604 11.5335C33.2052 11.9014 33.5474 12.3719 33.7869 12.945C34.0264 13.5181 34.1462 14.2068 34.1462 15.0109Z" fill="white"/>
<path d="M20.4031 10.4685C21.7376 10.4685 22.7599 10.708 23.4699 11.1871C24.1799 11.6576 24.5349 12.3932 24.5349 13.3941C24.5349 14.0186 24.3895 14.5276 24.0986 14.9211C23.8163 15.306 23.4057 15.6097 22.8668 15.8321C23.0464 16.0545 23.2346 16.3111 23.4314 16.602C23.6281 16.8843 23.8206 17.1837 24.0088 17.5002C24.2056 17.8082 24.3938 18.1332 24.5734 18.4754C24.753 18.809 24.9199 19.1384 25.0738 19.4634H22.8283C22.6658 19.1726 22.499 18.8775 22.3279 18.5781C22.1653 18.2786 21.9943 17.9878 21.8146 17.7055C21.6435 17.4232 21.4724 17.158 21.3014 16.9099C21.1303 16.6533 20.9592 16.4223 20.7881 16.217H19.8001V19.4634H17.7983V10.6995C18.2346 10.6139 18.6837 10.554 19.1457 10.5198C19.6161 10.4856 20.0353 10.4685 20.4031 10.4685ZM20.5186 12.1751C20.3732 12.1751 20.2406 12.1794 20.1209 12.1879C20.0096 12.1965 19.9027 12.205 19.8001 12.2136V14.6259H20.3647C21.1174 14.6259 21.6564 14.5318 21.9814 14.3436C22.3065 14.1554 22.469 13.8347 22.469 13.3813C22.469 12.945 22.3022 12.637 21.9686 12.4574C21.6435 12.2692 21.1602 12.1751 20.5186 12.1751Z" fill="white"/>
</svg>
