<svg width="158" height="352" viewBox="0 0 158 352" fill="none" xmlns="http://www.w3.org/2000/svg">
<g style="mix-blend-mode:hard-light">
<path d="M214.545 236.305C209.143 227.417 209.366 216.339 215.16 207.7C215.198 207.642 215.237 207.584 215.276 207.525C227.664 188.816 219.992 161.92 198.141 147.452C176.291 132.983 148.534 136.421 136.146 155.131C136.107 155.189 136.069 155.247 136.03 155.306C130.339 164.012 120.229 168.544 109.935 167.04C93.8839 164.696 78.2147 170.342 69.7394 183.142C57.3512 201.852 65.0229 228.748 86.8736 243.216C95.0811 248.651 104.12 251.554 112.864 252.073C122.428 252.641 130.858 258.223 135.115 266.805C139.006 274.653 145.208 281.841 153.416 287.276C175.266 301.744 203.023 298.306 215.411 279.597C223.888 266.798 222.969 250.168 214.545 236.305Z" fill="url(#paint0_linear_102_7593)"/>
<path d="M209.732 94.995C203.44 114.558 187.31 126.869 173.702 122.494C160.092 118.118 154.16 98.7125 160.45 79.1485C166.741 59.5856 182.872 47.2748 196.481 51.6509C210.088 56.0276 216.02 75.4327 209.732 94.995Z" fill="url(#paint1_linear_102_7593)"/>
<path d="M80.1116 127.304C86.7124 137.35 96.4073 143.065 105.815 141.153C119.823 138.304 127.862 119.672 123.768 99.5359C119.674 79.3976 104.998 65.3833 90.9922 68.2304C81.4137 70.1774 74.631 79.5111 72.6064 91.6545L80.1116 127.304Z" fill="url(#paint2_linear_102_7593)"/>
</g>
<defs>
<linearGradient id="paint0_linear_102_7593" x1="198.141" y1="147.451" x2="120.145" y2="265.246" gradientUnits="userSpaceOnUse">
<stop stop-color="#FFD86A"/>
<stop offset="1" stop-color="#F0BD2F"/>
</linearGradient>
<linearGradient id="paint1_linear_102_7593" x1="205.245" y1="56.6338" x2="164.936" y2="117.51" gradientUnits="userSpaceOnUse">
<stop stop-color="#FFD86A"/>
<stop offset="1" stop-color="#F0BD2F"/>
</linearGradient>
<linearGradient id="paint2_linear_102_7593" x1="116.1" y1="77.9686" x2="80.7186" y2="131.405" gradientUnits="userSpaceOnUse">
<stop stop-color="#FFD86A"/>
<stop offset="1" stop-color="#F0BD2F"/>
</linearGradient>
</defs>
</svg>
