<svg width="39" height="39" viewBox="0 0 39 39" fill="none" xmlns="http://www.w3.org/2000/svg">
<rect y="0.154785" width="38.3694" height="38.3694" rx="19.1847" fill="white"/>
<path d="M9.98117 27.6391C9.78664 27.909 10.1231 28.2455 10.393 28.051C14.1672 25.3306 17.2275 22.557 19.8147 19.9699C22.4019 17.3827 25.1755 14.3229 27.8958 10.5481C28.0904 10.2782 27.7539 9.94177 27.484 10.1363C23.7098 12.8567 20.6495 15.6302 18.0623 18.2174C15.4751 20.8046 12.7015 23.8644 9.98117 27.6391ZM14.475 29.5733C14.2934 29.8408 14.6176 30.165 14.8851 29.9833C18.1733 27.7507 20.7564 25.4538 23.0275 23.1827C25.2987 20.9115 27.5956 18.3284 29.8282 15.0396C30.0099 14.7721 29.6857 14.4479 29.4181 14.6296C26.13 16.8622 23.5463 19.1591 21.2751 21.4302C19.0039 23.7014 16.7076 26.2845 14.475 29.5733ZM8.04939 23.1476C7.86772 23.4152 8.19192 23.7394 8.45946 23.5577C11.7476 21.3251 14.3307 19.0282 16.6019 16.757C18.8731 14.4859 21.17 11.9028 23.4026 8.614C23.5842 8.34646 23.26 8.02226 22.9925 8.20393C19.7043 10.4365 17.1206 12.7334 14.8495 15.0046C12.5783 17.2758 10.282 19.8589 8.04939 23.1476Z" fill="#F0BD2F"/>
<path d="M22.9928 8.2037C19.7046 10.4363 17.1209 12.7332 14.8498 15.0044C12.5786 17.2755 10.2817 19.8586 8.04909 23.1474C7.95797 23.2812 7.9936 23.429 8.0859 23.5207L23.3661 8.2405C23.2744 8.14879 23.1266 8.11316 22.9928 8.2037ZM27.4843 10.1361C23.7101 12.8564 20.6498 15.63 18.0626 18.2172C15.4754 20.8044 12.7018 23.8642 9.98146 27.6389C9.88449 27.7739 9.91954 27.9257 10.0136 28.0192L27.8646 10.1682C27.7705 10.0747 27.6193 10.0391 27.4843 10.1361ZM29.4184 14.6293C26.1303 16.862 23.5466 19.1588 21.2754 21.43C19.0042 23.7012 16.7073 26.2843 14.4747 29.573C14.3836 29.7068 14.4192 29.8546 14.5115 29.9463L29.7917 14.6661C29.7 14.5744 29.5522 14.5388 29.4184 14.6293Z" fill="#FFD86A"/>
</svg>
