<svg width="28" height="25" viewBox="0 0 28 25" fill="none" xmlns="http://www.w3.org/2000/svg">
<path d="M26.6822 0.931247C26.2322 0.549647 25.5254 0.495047 24.7946 0.788447H24.7934C24.0248 1.09685 3.03685 10.0992 2.18245 10.467C2.02705 10.521 0.669846 11.0274 0.809646 12.1554C0.934446 13.1724 2.02525 13.5936 2.15845 13.6422L7.49425 15.4692C7.84825 16.6476 9.15325 20.9952 9.44185 21.924C9.62185 22.503 9.91525 23.2638 10.4294 23.4204C10.8806 23.5944 11.3294 23.4354 11.6198 23.2074L14.882 20.1817L20.1482 24.2886L20.2736 24.3636C20.6312 24.522 20.9738 24.6012 21.3008 24.6012C21.5534 24.6012 21.7958 24.5538 22.0274 24.459C22.8164 24.135 23.132 23.3832 23.165 23.298L27.0986 2.85185C27.3386 1.75985 27.005 1.20425 26.6822 0.931247ZM12.2 16.2L10.4 21L8.60005 15L22.4 4.80005L12.2 16.2Z" fill="#25272D"/>
</svg>
