<svg width="26" height="22" viewBox="0 0 26 22" fill="none" xmlns="http://www.w3.org/2000/svg">
<path d="M26 2.93703C25.043 3.36203 24.015 3.64803 22.936 3.77703C24.038 3.11703 24.883 2.07204 25.281 0.826035C24.251 1.43704 23.109 1.88103 21.893 2.12103C20.92 1.08404 19.534 0.436035 18 0.436035C15.054 0.436035 12.666 2.82504 12.666 5.77004C12.666 6.18804 12.714 6.59603 12.804 6.98503C8.37102 6.76303 4.44102 4.63903 1.80902 1.41103C1.35102 2.19903 1.08802 3.11503 1.08802 4.09403C1.08802 5.94403 2.02902 7.57703 3.46002 8.53303C2.58602 8.50503 1.76302 8.26503 1.04402 7.86603C1.04402 7.88903 1.04402 7.91003 1.04402 7.93303C1.04402 10.518 2.88202 12.674 5.32302 13.163C4.87602 13.285 4.40402 13.35 3.91702 13.35C3.57402 13.35 3.23902 13.316 2.91402 13.255C3.59302 15.374 5.56302 16.917 7.89702 16.96C6.07202 18.391 3.77202 19.244 1.27202 19.244C0.842024 19.244 0.417023 19.219 -0.000976562 19.169C2.36002 20.682 5.16302 21.565 8.17602 21.565C17.988 21.565 23.352 13.437 23.352 6.38803C23.352 6.15703 23.347 5.92703 23.337 5.69803C24.38 4.94503 25.285 4.00603 26 2.93703Z" fill="#25272D"/>
</svg>
